<?xml version="1.0" standalone="no"?>
<!DOCTYPE svg PUBLIC "-//W3C//DTD SVG 20010904//EN"
 "http://www.w3.org/TR/2001/REC-SVG-20010904/DTD/svg10.dtd">
<svg version="1.0" xmlns="http://www.w3.org/2000/svg"
 width="1121.000000pt" height="316.000000pt" viewBox="0 0 1121.000000 316.000000"
 preserveAspectRatio="xMidYMid meet">

<g transform="translate(0.000000,316.000000) scale(0.100000,-0.100000)"
fill="#000000" stroke="none">
<path d="M117 3083 c-3 -10 -8 -30 -11 -45 -5 -23 -12 -28 -36 -28 -20 0 -30
-5 -30 -15 0 -10 10 -15 26 -15 22 0 25 -3 20 -22 -3 -13 -6 -26 -6 -30 0 -5
-13 -8 -30 -8 -20 0 -30 -5 -30 -15 0 -9 10 -15 26 -15 19 0 24 -4 20 -17 -2
-10 -7 -28 -11 -40 -5 -17 -2 -23 9 -23 9 0 19 15 26 40 9 33 15 40 35 40 22
0 23 -2 14 -32 -12 -43 -12 -48 5 -48 8 0 18 16 23 38 7 30 14 38 36 40 31 4
37 32 7 32 -11 0 -20 6 -20 14 0 30 13 46 36 46 15 0 24 6 24 15 0 8 -9 15
-20 15 -23 0 -23 1 -11 53 8 33 7 38 -7 35 -11 -2 -20 -19 -26 -46 -7 -35 -13
-42 -33 -42 -19 0 -23 4 -19 18 17 59 18 72 3 72 -9 0 -18 -8 -20 -17z m49
-119 c-3 -9 -6 -22 -6 -30 0 -8 -10 -14 -25 -14 -27 0 -28 3 -19 38 5 15 14
22 31 22 19 0 24 -4 19 -16z"/>
<path d="M347 3083 c-3 -10 -8 -30 -11 -45 -5 -23 -12 -28 -36 -28 -20 0 -30
-5 -30 -15 0 -10 10 -15 26 -15 22 0 25 -3 20 -22 -3 -13 -6 -26 -6 -30 0 -5
-13 -8 -30 -8 -20 0 -30 -5 -30 -15 0 -9 10 -15 26 -15 19 0 24 -4 20 -17 -2
-10 -7 -28 -11 -40 -5 -17 -2 -23 9 -23 9 0 19 15 26 40 9 33 15 40 35 40 22
0 23 -2 14 -32 -12 -43 -12 -48 5 -48 8 0 18 16 23 38 7 30 14 38 36 40 31 4
37 32 7 32 -11 0 -20 6 -20 14 0 30 13 46 36 46 15 0 24 6 24 15 0 8 -9 15
-20 15 -23 0 -23 1 -11 53 8 33 7 38 -7 35 -11 -2 -20 -19 -26 -46 -7 -35 -13
-42 -33 -42 -19 0 -23 4 -19 18 17 59 18 72 3 72 -9 0 -18 -8 -20 -17z m49
-119 c-3 -9 -6 -22 -6 -30 0 -8 -10 -14 -25 -14 -27 0 -28 3 -19 38 5 15 14
22 31 22 19 0 24 -4 19 -16z"/>
<path d="M577 3083 c-3 -10 -8 -30 -11 -45 -5 -23 -12 -28 -36 -28 -20 0 -30
-5 -30 -15 0 -10 10 -15 26 -15 22 0 25 -3 20 -22 -3 -13 -6 -26 -6 -30 0 -5
-13 -8 -30 -8 -20 0 -30 -5 -30 -15 0 -9 10 -15 26 -15 19 0 24 -4 20 -17 -2
-10 -7 -28 -11 -40 -5 -17 -2 -23 9 -23 9 0 19 15 26 40 9 33 15 40 35 40 22
0 23 -2 14 -32 -12 -43 -12 -48 5 -48 8 0 18 16 23 38 7 30 14 38 36 40 31 4
37 32 7 32 -11 0 -20 6 -20 14 0 30 13 46 36 46 15 0 24 6 24 15 0 8 -9 15
-20 15 -23 0 -23 1 -11 53 8 33 7 38 -7 35 -11 -2 -20 -19 -26 -46 -7 -35 -13
-42 -33 -42 -19 0 -23 4 -19 18 17 59 18 72 3 72 -9 0 -18 -8 -20 -17z m49
-119 c-3 -9 -6 -22 -6 -30 0 -8 -10 -14 -25 -14 -27 0 -28 3 -19 38 5 15 14
22 31 22 19 0 24 -4 19 -16z"/>
<path d="M807 3083 c-3 -10 -8 -30 -11 -45 -5 -23 -12 -28 -36 -28 -20 0 -30
-5 -30 -15 0 -10 10 -15 26 -15 22 0 25 -3 20 -22 -3 -13 -6 -26 -6 -30 0 -5
-13 -8 -30 -8 -20 0 -30 -5 -30 -15 0 -9 10 -15 26 -15 19 0 24 -4 20 -17 -2
-10 -7 -28 -11 -40 -5 -17 -2 -23 9 -23 9 0 19 15 26 40 9 33 15 40 35 40 22
0 23 -2 14 -32 -12 -43 -12 -48 5 -48 8 0 18 16 23 38 7 30 14 38 36 40 31 4
37 32 7 32 -11 0 -20 6 -20 14 0 30 13 46 36 46 15 0 24 6 24 15 0 8 -9 15
-20 15 -23 0 -23 1 -11 53 8 33 7 38 -7 35 -11 -2 -20 -19 -26 -46 -7 -35 -13
-42 -33 -42 -19 0 -23 4 -19 18 17 59 18 72 3 72 -9 0 -18 -8 -20 -17z m49
-119 c-3 -9 -6 -22 -6 -30 0 -8 -10 -14 -25 -14 -27 0 -28 3 -19 38 5 15 14
22 31 22 19 0 24 -4 19 -16z"/>
<path d="M1037 3083 c-3 -10 -8 -30 -11 -45 -5 -23 -12 -28 -36 -28 -20 0 -30
-5 -30 -15 0 -10 10 -15 26 -15 22 0 25 -3 20 -22 -3 -13 -6 -26 -6 -30 0 -5
-13 -8 -30 -8 -20 0 -30 -5 -30 -15 0 -9 10 -15 26 -15 19 0 24 -4 20 -17 -2
-10 -7 -28 -11 -40 -5 -17 -2 -23 9 -23 9 0 19 15 26 40 9 33 15 40 35 40 22
0 23 -2 14 -32 -12 -43 -12 -48 5 -48 8 0 18 16 23 38 7 30 14 38 36 40 31 4
37 32 7 32 -11 0 -20 6 -20 14 0 30 13 46 36 46 15 0 24 6 24 15 0 8 -9 15
-20 15 -23 0 -23 1 -11 53 8 33 7 38 -7 35 -11 -2 -20 -19 -26 -46 -7 -35 -13
-42 -33 -42 -19 0 -23 4 -19 18 17 59 18 72 3 72 -9 0 -18 -8 -20 -17z m49
-119 c-3 -9 -6 -22 -6 -30 0 -8 -10 -14 -25 -14 -27 0 -28 3 -19 38 5 15 14
22 31 22 19 0 24 -4 19 -16z"/>
<path d="M1267 3083 c-3 -10 -8 -30 -11 -45 -5 -23 -12 -28 -36 -28 -20 0 -30
-5 -30 -15 0 -10 10 -15 26 -15 22 0 25 -3 20 -22 -3 -13 -6 -26 -6 -30 0 -5
-13 -8 -30 -8 -20 0 -30 -5 -30 -15 0 -9 10 -15 26 -15 19 0 24 -4 20 -17 -2
-10 -7 -28 -11 -40 -5 -17 -2 -23 9 -23 9 0 19 15 26 40 9 33 15 40 35 40 22
0 23 -2 14 -32 -12 -43 -12 -48 5 -48 8 0 18 16 23 38 7 30 14 38 36 40 31 4
37 32 7 32 -11 0 -20 6 -20 14 0 30 13 46 36 46 15 0 24 6 24 15 0 8 -9 15
-20 15 -23 0 -23 1 -11 53 8 33 7 38 -7 35 -11 -2 -20 -19 -26 -46 -7 -35 -13
-42 -33 -42 -19 0 -23 4 -19 18 17 59 18 72 3 72 -9 0 -18 -8 -20 -17z m49
-119 c-3 -9 -6 -22 -6 -30 0 -8 -10 -14 -25 -14 -27 0 -28 3 -19 38 5 15 14
22 31 22 19 0 24 -4 19 -16z"/>
<path d="M117 2633 c-3 -10 -8 -30 -11 -45 -5 -23 -12 -28 -36 -28 -20 0 -30
-5 -30 -15 0 -10 10 -15 26 -15 22 0 25 -3 20 -22 -3 -13 -6 -26 -6 -30 0 -5
-13 -8 -30 -8 -20 0 -30 -5 -30 -15 0 -9 10 -15 26 -15 19 0 24 -4 20 -17 -2
-10 -7 -28 -11 -40 -5 -17 -2 -23 9 -23 9 0 19 15 26 40 9 33 15 40 35 40 22
0 23 -2 14 -32 -12 -43 -12 -48 5 -48 8 0 18 16 23 38 7 30 14 38 36 40 31 4
37 32 7 32 -11 0 -20 6 -20 14 0 30 13 46 36 46 15 0 24 6 24 15 0 8 -9 15
-20 15 -23 0 -23 1 -11 53 8 33 7 38 -7 35 -11 -2 -20 -19 -26 -46 -7 -35 -13
-42 -33 -42 -19 0 -23 4 -19 18 17 59 18 72 3 72 -9 0 -18 -8 -20 -17z m49
-119 c-3 -9 -6 -22 -6 -30 0 -8 -10 -14 -25 -14 -27 0 -28 3 -19 38 5 15 14
22 31 22 19 0 24 -4 19 -16z"/>
<path d="M1497 2633 c-3 -10 -8 -30 -11 -45 -5 -23 -12 -28 -36 -28 -20 0 -30
-5 -30 -15 0 -10 10 -15 26 -15 22 0 25 -3 20 -22 -3 -13 -6 -26 -6 -30 0 -5
-13 -8 -30 -8 -20 0 -30 -5 -30 -15 0 -9 10 -15 26 -15 19 0 24 -4 20 -17 -2
-10 -7 -28 -11 -40 -5 -17 -2 -23 9 -23 9 0 19 15 26 40 9 33 15 40 35 40 22
0 23 -2 14 -32 -12 -43 -12 -48 5 -48 8 0 18 16 23 38 7 30 14 38 36 40 31 4
37 32 7 32 -11 0 -20 6 -20 14 0 30 13 46 36 46 15 0 24 6 24 15 0 8 -9 15
-20 15 -23 0 -23 1 -11 53 8 33 7 38 -7 35 -11 -2 -20 -19 -26 -46 -7 -35 -13
-42 -33 -42 -19 0 -23 4 -19 18 17 59 18 72 3 72 -9 0 -18 -8 -20 -17z m49
-119 c-3 -9 -6 -22 -6 -30 0 -8 -10 -14 -25 -14 -27 0 -28 3 -19 38 5 15 14
22 31 22 19 0 24 -4 19 -16z"/>
<path d="M2417 2633 c-3 -10 -8 -30 -11 -45 -5 -23 -12 -28 -36 -28 -20 0 -30
-5 -30 -15 0 -10 10 -15 26 -15 22 0 25 -3 20 -22 -3 -13 -6 -26 -6 -30 0 -5
-13 -8 -30 -8 -20 0 -30 -5 -30 -15 0 -9 10 -15 26 -15 19 0 24 -4 20 -17 -2
-10 -7 -28 -11 -40 -5 -17 -2 -23 9 -23 9 0 19 15 26 40 9 33 15 40 35 40 22
0 23 -2 14 -32 -12 -43 -12 -48 5 -48 8 0 18 16 23 38 7 30 14 38 36 40 31 4
37 32 7 32 -11 0 -20 6 -20 14 0 30 13 46 36 46 15 0 24 6 24 15 0 8 -9 15
-20 15 -23 0 -23 1 -11 53 8 33 7 38 -7 35 -11 -2 -20 -19 -26 -46 -7 -35 -13
-42 -33 -42 -19 0 -23 4 -19 18 17 59 18 72 3 72 -9 0 -18 -8 -20 -17z m49
-119 c-3 -9 -6 -22 -6 -30 0 -8 -10 -14 -25 -14 -27 0 -28 3 -19 38 5 15 14
22 31 22 19 0 24 -4 19 -16z"/>
<path d="M2647 2633 c-3 -10 -8 -30 -11 -45 -5 -23 -12 -28 -36 -28 -20 0 -30
-5 -30 -15 0 -10 10 -15 26 -15 22 0 25 -3 20 -22 -3 -13 -6 -26 -6 -30 0 -5
-13 -8 -30 -8 -20 0 -30 -5 -30 -15 0 -9 10 -15 26 -15 19 0 24 -4 20 -17 -2
-10 -7 -28 -11 -40 -5 -17 -2 -23 9 -23 9 0 19 15 26 40 9 33 15 40 35 40 22
0 23 -2 14 -32 -12 -43 -12 -48 5 -48 8 0 18 16 23 38 7 30 14 38 36 40 31 4
37 32 7 32 -11 0 -20 6 -20 14 0 30 13 46 36 46 15 0 24 6 24 15 0 8 -9 15
-20 15 -23 0 -23 1 -11 53 8 33 7 38 -7 35 -11 -2 -20 -19 -26 -46 -7 -35 -13
-42 -33 -42 -19 0 -23 4 -19 18 17 59 18 72 3 72 -9 0 -18 -8 -20 -17z m49
-119 c-3 -9 -6 -22 -6 -30 0 -8 -10 -14 -25 -14 -27 0 -28 3 -19 38 5 15 14
22 31 22 19 0 24 -4 19 -16z"/>
<path d="M3567 2633 c-3 -10 -8 -30 -11 -45 -5 -23 -12 -28 -36 -28 -20 0 -30
-5 -30 -15 0 -10 10 -15 26 -15 22 0 25 -3 20 -22 -3 -13 -6 -26 -6 -30 0 -5
-13 -8 -30 -8 -20 0 -30 -5 -30 -15 0 -9 10 -15 26 -15 19 0 24 -4 20 -17 -2
-10 -7 -28 -11 -40 -5 -17 -2 -23 9 -23 9 0 19 15 26 40 9 33 15 40 35 40 22
0 23 -2 14 -32 -12 -43 -12 -48 5 -48 8 0 18 16 23 38 7 30 14 38 36 40 31 4
37 32 7 32 -11 0 -20 6 -20 14 0 30 13 46 36 46 15 0 24 6 24 15 0 8 -9 15
-20 15 -23 0 -23 1 -11 53 8 33 7 38 -7 35 -11 -2 -20 -19 -26 -46 -7 -35 -13
-42 -33 -42 -19 0 -23 4 -19 18 17 59 18 72 3 72 -9 0 -18 -8 -20 -17z m49
-119 c-3 -9 -6 -22 -6 -30 0 -8 -10 -14 -25 -14 -27 0 -28 3 -19 38 5 15 14
22 31 22 19 0 24 -4 19 -16z"/>
<path d="M3797 2633 c-3 -10 -8 -30 -11 -45 -5 -23 -12 -28 -36 -28 -20 0 -30
-5 -30 -15 0 -10 10 -15 26 -15 22 0 25 -3 20 -22 -3 -13 -6 -26 -6 -30 0 -5
-13 -8 -30 -8 -20 0 -30 -5 -30 -15 0 -9 10 -15 26 -15 19 0 24 -4 20 -17 -2
-10 -7 -28 -11 -40 -5 -17 -2 -23 9 -23 9 0 19 15 26 40 9 33 15 40 35 40 22
0 23 -2 14 -32 -12 -43 -12 -48 5 -48 8 0 18 16 23 38 7 30 14 38 36 40 31 4
37 32 7 32 -11 0 -20 6 -20 14 0 30 13 46 36 46 15 0 24 6 24 15 0 8 -9 15
-20 15 -23 0 -23 1 -11 53 8 33 7 38 -7 35 -11 -2 -20 -19 -26 -46 -7 -35 -13
-42 -33 -42 -19 0 -23 4 -19 18 17 59 18 72 3 72 -9 0 -18 -8 -20 -17z m49
-119 c-3 -9 -6 -22 -6 -30 0 -8 -10 -14 -25 -14 -27 0 -28 3 -19 38 5 15 14
22 31 22 19 0 24 -4 19 -16z"/>
<path d="M4027 2633 c-3 -10 -8 -30 -11 -45 -5 -23 -12 -28 -36 -28 -20 0 -30
-5 -30 -15 0 -10 10 -15 26 -15 22 0 25 -3 20 -22 -3 -13 -6 -26 -6 -30 0 -5
-13 -8 -30 -8 -20 0 -30 -5 -30 -15 0 -9 10 -15 26 -15 19 0 24 -4 20 -17 -2
-10 -7 -28 -11 -40 -5 -17 -2 -23 9 -23 9 0 19 15 26 40 9 33 15 40 35 40 22
0 23 -2 14 -32 -12 -43 -12 -48 5 -48 8 0 18 16 23 38 7 30 14 38 36 40 31 4
37 32 7 32 -11 0 -20 6 -20 14 0 30 13 46 36 46 15 0 24 6 24 15 0 8 -9 15
-20 15 -23 0 -23 1 -11 53 8 33 7 38 -7 35 -11 -2 -20 -19 -26 -46 -7 -35 -13
-42 -33 -42 -19 0 -23 4 -19 18 17 59 18 72 3 72 -9 0 -18 -8 -20 -17z m49
-119 c-3 -9 -6 -22 -6 -30 0 -8 -10 -14 -25 -14 -27 0 -28 3 -19 38 5 15 14
22 31 22 19 0 24 -4 19 -16z"/>
<path d="M4257 2633 c-3 -10 -8 -30 -11 -45 -5 -23 -12 -28 -36 -28 -20 0 -30
-5 -30 -15 0 -10 10 -15 26 -15 22 0 25 -3 20 -22 -3 -13 -6 -26 -6 -30 0 -5
-13 -8 -30 -8 -20 0 -30 -5 -30 -15 0 -9 10 -15 26 -15 19 0 24 -4 20 -17 -2
-10 -7 -28 -11 -40 -5 -17 -2 -23 9 -23 9 0 19 15 26 40 9 33 15 40 35 40 22
0 23 -2 14 -32 -12 -43 -12 -48 5 -48 8 0 18 16 23 38 7 30 14 38 36 40 31 4
37 32 7 32 -11 0 -20 6 -20 14 0 30 13 46 36 46 15 0 24 6 24 15 0 8 -9 15
-20 15 -23 0 -23 1 -11 53 8 33 7 38 -7 35 -11 -2 -20 -19 -26 -46 -7 -35 -13
-42 -33 -42 -19 0 -23 4 -19 18 17 59 18 72 3 72 -9 0 -18 -8 -20 -17z m49
-119 c-3 -9 -6 -22 -6 -30 0 -8 -10 -14 -25 -14 -27 0 -28 3 -19 38 5 15 14
22 31 22 19 0 24 -4 19 -16z"/>
<path d="M4487 2633 c-3 -10 -8 -30 -11 -45 -5 -23 -12 -28 -36 -28 -20 0 -30
-5 -30 -15 0 -10 10 -15 26 -15 22 0 25 -3 20 -22 -3 -13 -6 -26 -6 -30 0 -5
-13 -8 -30 -8 -20 0 -30 -5 -30 -15 0 -9 10 -15 26 -15 19 0 24 -4 20 -17 -2
-10 -7 -28 -11 -40 -5 -17 -2 -23 9 -23 9 0 19 15 26 40 9 33 15 40 35 40 22
0 23 -2 14 -32 -12 -43 -12 -48 5 -48 8 0 18 16 23 38 7 30 14 38 36 40 31 4
37 32 7 32 -11 0 -20 6 -20 14 0 30 13 46 36 46 15 0 24 6 24 15 0 8 -9 15
-20 15 -23 0 -23 1 -11 53 8 33 7 38 -7 35 -11 -2 -20 -19 -26 -46 -7 -35 -13
-42 -33 -42 -19 0 -23 4 -19 18 17 59 18 72 3 72 -9 0 -18 -8 -20 -17z m49
-119 c-3 -9 -6 -22 -6 -30 0 -8 -10 -14 -25 -14 -27 0 -28 3 -19 38 5 15 14
22 31 22 19 0 24 -4 19 -16z"/>
<path d="M5407 2633 c-3 -10 -8 -30 -11 -45 -5 -23 -12 -28 -36 -28 -20 0 -30
-5 -30 -15 0 -10 10 -15 26 -15 22 0 25 -3 20 -22 -3 -13 -6 -26 -6 -30 0 -5
-13 -8 -30 -8 -20 0 -30 -5 -30 -15 0 -9 10 -15 26 -15 19 0 24 -4 20 -17 -2
-10 -7 -28 -11 -40 -5 -17 -2 -23 9 -23 9 0 19 15 26 40 9 33 15 40 35 40 22
0 23 -2 14 -32 -12 -43 -12 -48 5 -48 8 0 18 16 23 38 7 30 14 38 36 40 31 4
37 32 7 32 -11 0 -20 6 -20 14 0 30 13 46 36 46 15 0 24 6 24 15 0 8 -9 15
-20 15 -23 0 -23 1 -11 53 8 33 7 38 -7 35 -11 -2 -20 -19 -26 -46 -7 -35 -13
-42 -33 -42 -19 0 -23 4 -19 18 17 59 18 72 3 72 -9 0 -18 -8 -20 -17z m49
-119 c-3 -9 -6 -22 -6 -30 0 -8 -10 -14 -25 -14 -27 0 -28 3 -19 38 5 15 14
22 31 22 19 0 24 -4 19 -16z"/>
<path d="M5637 2633 c-3 -10 -8 -30 -11 -45 -5 -23 -12 -28 -36 -28 -20 0 -30
-5 -30 -15 0 -10 10 -15 26 -15 22 0 25 -3 20 -22 -3 -13 -6 -26 -6 -30 0 -5
-13 -8 -30 -8 -20 0 -30 -5 -30 -15 0 -9 10 -15 26 -15 19 0 24 -4 20 -17 -2
-10 -7 -28 -11 -40 -5 -17 -2 -23 9 -23 9 0 19 15 26 40 9 33 15 40 35 40 22
0 23 -2 14 -32 -12 -43 -12 -48 5 -48 8 0 18 16 23 38 7 30 14 38 36 40 31 4
37 32 7 32 -11 0 -20 6 -20 14 0 30 13 46 36 46 15 0 24 6 24 15 0 8 -9 15
-20 15 -23 0 -23 1 -11 53 8 33 7 38 -7 35 -11 -2 -20 -19 -26 -46 -7 -35 -13
-42 -33 -42 -19 0 -23 4 -19 18 17 59 18 72 3 72 -9 0 -18 -8 -20 -17z m49
-119 c-3 -9 -6 -22 -6 -30 0 -8 -10 -14 -25 -14 -27 0 -28 3 -19 38 5 15 14
22 31 22 19 0 24 -4 19 -16z"/>
<path d="M6557 2633 c-3 -10 -8 -30 -11 -45 -5 -23 -12 -28 -36 -28 -20 0 -30
-5 -30 -15 0 -10 10 -15 26 -15 22 0 25 -3 20 -22 -3 -13 -6 -26 -6 -30 0 -5
-13 -8 -30 -8 -20 0 -30 -5 -30 -15 0 -9 10 -15 26 -15 19 0 24 -4 20 -17 -2
-10 -7 -28 -11 -40 -5 -17 -2 -23 9 -23 9 0 19 15 26 40 9 33 15 40 35 40 22
0 23 -2 14 -32 -12 -43 -12 -48 5 -48 8 0 18 16 23 38 7 30 14 38 36 40 31 4
37 32 7 32 -11 0 -20 6 -20 14 0 30 13 46 36 46 15 0 24 6 24 15 0 8 -9 15
-20 15 -23 0 -23 1 -11 53 8 33 7 38 -7 35 -11 -2 -20 -19 -26 -46 -7 -35 -13
-42 -33 -42 -19 0 -23 4 -19 18 17 59 18 72 3 72 -9 0 -18 -8 -20 -17z m49
-119 c-3 -9 -6 -22 -6 -30 0 -8 -10 -14 -25 -14 -27 0 -28 3 -19 38 5 15 14
22 31 22 19 0 24 -4 19 -16z"/>
<path d="M6787 2633 c-3 -10 -8 -30 -11 -45 -5 -23 -12 -28 -36 -28 -20 0 -30
-5 -30 -15 0 -10 10 -15 26 -15 22 0 25 -3 20 -22 -3 -13 -6 -26 -6 -30 0 -5
-13 -8 -30 -8 -20 0 -30 -5 -30 -15 0 -9 10 -15 26 -15 19 0 24 -4 20 -17 -2
-10 -7 -28 -11 -40 -5 -17 -2 -23 9 -23 9 0 19 15 26 40 9 33 15 40 35 40 22
0 23 -2 14 -32 -12 -43 -12 -48 5 -48 8 0 18 16 23 38 7 30 14 38 36 40 31 4
37 32 7 32 -11 0 -20 6 -20 14 0 30 13 46 36 46 15 0 24 6 24 15 0 8 -9 15
-20 15 -23 0 -23 1 -11 53 8 33 7 38 -7 35 -11 -2 -20 -19 -26 -46 -7 -35 -13
-42 -33 -42 -19 0 -23 4 -19 18 17 59 18 72 3 72 -9 0 -18 -8 -20 -17z m49
-119 c-3 -9 -6 -22 -6 -30 0 -8 -10 -14 -25 -14 -27 0 -28 3 -19 38 5 15 14
22 31 22 19 0 24 -4 19 -16z"/>
<path d="M7017 2633 c-3 -10 -8 -30 -11 -45 -5 -23 -12 -28 -36 -28 -20 0 -30
-5 -30 -15 0 -10 10 -15 26 -15 22 0 25 -3 20 -22 -3 -13 -6 -26 -6 -30 0 -5
-13 -8 -30 -8 -20 0 -30 -5 -30 -15 0 -9 10 -15 26 -15 19 0 24 -4 20 -17 -2
-10 -7 -28 -11 -40 -5 -17 -2 -23 9 -23 9 0 19 15 26 40 9 33 15 40 35 40 22
0 23 -2 14 -32 -12 -43 -12 -48 5 -48 8 0 18 16 23 38 7 30 14 38 36 40 31 4
37 32 7 32 -11 0 -20 6 -20 14 0 30 13 46 36 46 15 0 24 6 24 15 0 8 -9 15
-20 15 -23 0 -23 1 -11 53 8 33 7 38 -7 35 -11 -2 -20 -19 -26 -46 -7 -35 -13
-42 -33 -42 -19 0 -23 4 -19 18 17 59 18 72 3 72 -9 0 -18 -8 -20 -17z m49
-119 c-3 -9 -6 -22 -6 -30 0 -8 -10 -14 -25 -14 -27 0 -28 3 -19 38 5 15 14
22 31 22 19 0 24 -4 19 -16z"/>
<path d="M7247 2633 c-3 -10 -8 -30 -11 -45 -5 -23 -12 -28 -36 -28 -20 0 -30
-5 -30 -15 0 -10 10 -15 26 -15 22 0 25 -3 20 -22 -3 -13 -6 -26 -6 -30 0 -5
-13 -8 -30 -8 -20 0 -30 -5 -30 -15 0 -9 10 -15 26 -15 19 0 24 -4 20 -17 -2
-10 -7 -28 -11 -40 -5 -17 -2 -23 9 -23 9 0 19 15 26 40 9 33 15 40 35 40 22
0 23 -2 14 -32 -12 -43 -12 -48 5 -48 8 0 18 16 23 38 7 30 14 38 36 40 31 4
37 32 7 32 -11 0 -20 6 -20 14 0 30 13 46 36 46 15 0 24 6 24 15 0 8 -9 15
-20 15 -23 0 -23 1 -11 53 8 33 7 38 -7 35 -11 -2 -20 -19 -26 -46 -7 -35 -13
-42 -33 -42 -19 0 -23 4 -19 18 17 59 18 72 3 72 -9 0 -18 -8 -20 -17z m49
-119 c-3 -9 -6 -22 -6 -30 0 -8 -10 -14 -25 -14 -27 0 -28 3 -19 38 5 15 14
22 31 22 19 0 24 -4 19 -16z"/>
<path d="M7477 2633 c-3 -10 -8 -30 -11 -45 -5 -23 -12 -28 -36 -28 -20 0 -30
-5 -30 -15 0 -10 10 -15 26 -15 22 0 25 -3 20 -22 -3 -13 -6 -26 -6 -30 0 -5
-13 -8 -30 -8 -20 0 -30 -5 -30 -15 0 -9 10 -15 26 -15 19 0 24 -4 20 -17 -2
-10 -7 -28 -11 -40 -5 -17 -2 -23 9 -23 9 0 19 15 26 40 9 33 15 40 35 40 22
0 23 -2 14 -32 -12 -43 -12 -48 5 -48 8 0 18 16 23 38 7 30 14 38 36 40 31 4
37 32 7 32 -11 0 -20 6 -20 14 0 30 13 46 36 46 15 0 24 6 24 15 0 8 -9 15
-20 15 -23 0 -23 1 -11 53 8 33 7 38 -7 35 -11 -2 -20 -19 -26 -46 -7 -35 -13
-42 -33 -42 -19 0 -23 4 -19 18 17 59 18 72 3 72 -9 0 -18 -8 -20 -17z m49
-119 c-3 -9 -6 -22 -6 -30 0 -8 -10 -14 -25 -14 -27 0 -28 3 -19 38 5 15 14
22 31 22 19 0 24 -4 19 -16z"/>
<path d="M8167 2633 c-3 -10 -8 -30 -11 -45 -5 -23 -12 -28 -36 -28 -20 0 -30
-5 -30 -15 0 -10 10 -15 26 -15 22 0 25 -3 20 -22 -3 -13 -6 -26 -6 -30 0 -5
-13 -8 -30 -8 -20 0 -30 -5 -30 -15 0 -9 10 -15 26 -15 19 0 24 -4 20 -17 -2
-10 -7 -28 -11 -40 -5 -17 -2 -23 9 -23 9 0 19 15 26 40 9 33 15 40 35 40 22
0 23 -2 14 -32 -12 -43 -12 -48 5 -48 8 0 18 16 23 38 7 30 14 38 36 40 31 4
37 32 7 32 -11 0 -20 6 -20 14 0 30 13 46 36 46 15 0 24 6 24 15 0 8 -9 15
-20 15 -23 0 -23 1 -11 53 8 33 7 38 -7 35 -11 -2 -20 -19 -26 -46 -7 -35 -13
-42 -33 -42 -19 0 -23 4 -19 18 17 59 18 72 3 72 -9 0 -18 -8 -20 -17z m49
-119 c-3 -9 -6 -22 -6 -30 0 -8 -10 -14 -25 -14 -27 0 -28 3 -19 38 5 15 14
22 31 22 19 0 24 -4 19 -16z"/>
<path d="M9317 2633 c-3 -10 -8 -30 -11 -45 -5 -23 -12 -28 -36 -28 -20 0 -30
-5 -30 -15 0 -10 10 -15 26 -15 22 0 25 -3 20 -22 -3 -13 -6 -26 -6 -30 0 -5
-13 -8 -30 -8 -20 0 -30 -5 -30 -15 0 -9 10 -15 26 -15 19 0 24 -4 20 -17 -2
-10 -7 -28 -11 -40 -5 -17 -2 -23 9 -23 9 0 19 15 26 40 9 33 15 40 35 40 22
0 23 -2 14 -32 -12 -43 -12 -48 5 -48 8 0 18 16 23 38 7 30 14 38 36 40 31 4
37 32 7 32 -11 0 -20 6 -20 14 0 30 13 46 36 46 15 0 24 6 24 15 0 8 -9 15
-20 15 -23 0 -23 1 -11 53 8 33 7 38 -7 35 -11 -2 -20 -19 -26 -46 -7 -35 -13
-42 -33 -42 -19 0 -23 4 -19 18 17 59 18 72 3 72 -9 0 -18 -8 -20 -17z m49
-119 c-3 -9 -6 -22 -6 -30 0 -8 -10 -14 -25 -14 -27 0 -28 3 -19 38 5 15 14
22 31 22 19 0 24 -4 19 -16z"/>
<path d="M10007 2633 c-3 -10 -8 -30 -11 -45 -5 -23 -12 -28 -36 -28 -20 0
-30 -5 -30 -15 0 -10 10 -15 26 -15 22 0 25 -3 20 -22 -3 -13 -6 -26 -6 -30 0
-5 -13 -8 -30 -8 -20 0 -30 -5 -30 -15 0 -9 10 -15 26 -15 19 0 24 -4 20 -17
-2 -10 -7 -28 -11 -40 -5 -17 -2 -23 9 -23 9 0 19 15 26 40 9 33 15 40 35 40
22 0 23 -2 14 -32 -12 -43 -12 -48 5 -48 8 0 18 16 23 38 7 30 14 38 36 40 31
4 37 32 7 32 -11 0 -20 6 -20 14 0 30 13 46 36 46 15 0 24 6 24 15 0 8 -9 15
-20 15 -23 0 -23 1 -11 53 8 33 7 38 -7 35 -11 -2 -20 -19 -26 -46 -7 -35 -13
-42 -33 -42 -19 0 -23 4 -19 18 17 59 18 72 3 72 -9 0 -18 -8 -20 -17z m49
-119 c-3 -9 -6 -22 -6 -30 0 -8 -10 -14 -25 -14 -27 0 -28 3 -19 38 5 15 14
22 31 22 19 0 24 -4 19 -16z"/>
<path d="M10237 2633 c-3 -10 -8 -30 -11 -45 -5 -23 -12 -28 -36 -28 -20 0
-30 -5 -30 -15 0 -10 10 -15 26 -15 22 0 25 -3 20 -22 -3 -13 -6 -26 -6 -30 0
-5 -13 -8 -30 -8 -20 0 -30 -5 -30 -15 0 -9 10 -15 26 -15 19 0 24 -4 20 -17
-2 -10 -7 -28 -11 -40 -5 -17 -2 -23 9 -23 9 0 19 15 26 40 9 33 15 40 35 40
22 0 23 -2 14 -32 -12 -43 -12 -48 5 -48 8 0 18 16 23 38 7 30 14 38 36 40 31
4 37 32 7 32 -11 0 -20 6 -20 14 0 30 13 46 36 46 15 0 24 6 24 15 0 8 -9 15
-20 15 -23 0 -23 1 -11 53 8 33 7 38 -7 35 -11 -2 -20 -19 -26 -46 -7 -35 -13
-42 -33 -42 -19 0 -23 4 -19 18 17 59 18 72 3 72 -9 0 -18 -8 -20 -17z m49
-119 c-3 -9 -6 -22 -6 -30 0 -8 -10 -14 -25 -14 -27 0 -28 3 -19 38 5 15 14
22 31 22 19 0 24 -4 19 -16z"/>
<path d="M10467 2633 c-3 -10 -8 -30 -11 -45 -5 -23 -12 -28 -36 -28 -20 0
-30 -5 -30 -15 0 -10 10 -15 26 -15 22 0 25 -3 20 -22 -3 -13 -6 -26 -6 -30 0
-5 -13 -8 -30 -8 -20 0 -30 -5 -30 -15 0 -9 10 -15 26 -15 19 0 24 -4 20 -17
-2 -10 -7 -28 -11 -40 -5 -17 -2 -23 9 -23 9 0 19 15 26 40 9 33 15 40 35 40
22 0 23 -2 14 -32 -12 -43 -12 -48 5 -48 8 0 18 16 23 38 7 30 14 38 36 40 31
4 37 32 7 32 -11 0 -20 6 -20 14 0 30 13 46 36 46 15 0 24 6 24 15 0 8 -9 15
-20 15 -23 0 -23 1 -11 53 8 33 7 38 -7 35 -11 -2 -20 -19 -26 -46 -7 -35 -13
-42 -33 -42 -19 0 -23 4 -19 18 17 59 18 72 3 72 -9 0 -18 -8 -20 -17z m49
-119 c-3 -9 -6 -22 -6 -30 0 -8 -10 -14 -25 -14 -27 0 -28 3 -19 38 5 15 14
22 31 22 19 0 24 -4 19 -16z"/>
<path d="M10697 2633 c-3 -10 -8 -30 -11 -45 -5 -23 -12 -28 -36 -28 -20 0
-30 -5 -30 -15 0 -10 10 -15 26 -15 22 0 25 -3 20 -22 -3 -13 -6 -26 -6 -30 0
-5 -13 -8 -30 -8 -20 0 -30 -5 -30 -15 0 -9 10 -15 26 -15 19 0 24 -4 20 -17
-2 -10 -7 -28 -11 -40 -5 -17 -2 -23 9 -23 9 0 19 15 26 40 9 33 15 40 35 40
22 0 23 -2 14 -32 -12 -43 -12 -48 5 -48 8 0 18 16 23 38 7 30 14 38 36 40 31
4 37 32 7 32 -11 0 -20 6 -20 14 0 30 13 46 36 46 15 0 24 6 24 15 0 8 -9 15
-20 15 -23 0 -23 1 -11 53 8 33 7 38 -7 35 -11 -2 -20 -19 -26 -46 -7 -35 -13
-42 -33 -42 -19 0 -23 4 -19 18 17 59 18 72 3 72 -9 0 -18 -8 -20 -17z m49
-119 c-3 -9 -6 -22 -6 -30 0 -8 -10 -14 -25 -14 -27 0 -28 3 -19 38 5 15 14
22 31 22 19 0 24 -4 19 -16z"/>
<path d="M117 2183 c-3 -10 -8 -30 -11 -45 -5 -23 -12 -28 -36 -28 -20 0 -30
-5 -30 -15 0 -10 10 -15 26 -15 22 0 25 -3 20 -22 -3 -13 -6 -26 -6 -30 0 -5
-13 -8 -30 -8 -20 0 -30 -5 -30 -15 0 -9 10 -15 26 -15 19 0 24 -4 20 -17 -2
-10 -7 -28 -11 -40 -5 -17 -2 -23 9 -23 9 0 19 15 26 40 9 33 15 40 35 40 22
0 23 -2 14 -32 -12 -43 -12 -48 5 -48 8 0 18 16 23 38 7 30 14 38 36 40 31 4
37 32 7 32 -11 0 -20 6 -20 14 0 30 13 46 36 46 15 0 24 6 24 15 0 8 -9 15
-20 15 -23 0 -23 1 -11 53 8 33 7 38 -7 35 -11 -2 -20 -19 -26 -46 -7 -35 -13
-42 -33 -42 -19 0 -23 4 -19 18 17 59 18 72 3 72 -9 0 -18 -8 -20 -17z m49
-119 c-3 -9 -6 -22 -6 -30 0 -8 -10 -14 -25 -14 -27 0 -28 3 -19 38 5 15 14
22 31 22 19 0 24 -4 19 -16z"/>
<path d="M1497 2183 c-3 -10 -8 -30 -11 -45 -5 -23 -12 -28 -36 -28 -20 0 -30
-5 -30 -15 0 -10 10 -15 26 -15 22 0 25 -3 20 -22 -3 -13 -6 -26 -6 -30 0 -5
-13 -8 -30 -8 -20 0 -30 -5 -30 -15 0 -9 10 -15 26 -15 19 0 24 -4 20 -17 -2
-10 -7 -28 -11 -40 -5 -17 -2 -23 9 -23 9 0 19 15 26 40 9 33 15 40 35 40 22
0 23 -2 14 -32 -12 -43 -12 -48 5 -48 8 0 18 16 23 38 7 30 14 38 36 40 31 4
37 32 7 32 -11 0 -20 6 -20 14 0 30 13 46 36 46 15 0 24 6 24 15 0 8 -9 15
-20 15 -23 0 -23 1 -11 53 8 33 7 38 -7 35 -11 -2 -20 -19 -26 -46 -7 -35 -13
-42 -33 -42 -19 0 -23 4 -19 18 17 59 18 72 3 72 -9 0 -18 -8 -20 -17z m49
-119 c-3 -9 -6 -22 -6 -30 0 -8 -10 -14 -25 -14 -27 0 -28 3 -19 38 5 15 14
22 31 22 19 0 24 -4 19 -16z"/>
<path d="M2187 2183 c-3 -10 -8 -30 -11 -45 -5 -23 -12 -28 -36 -28 -20 0 -30
-5 -30 -15 0 -10 10 -15 26 -15 22 0 25 -3 20 -22 -3 -13 -6 -26 -6 -30 0 -5
-13 -8 -30 -8 -20 0 -30 -5 -30 -15 0 -9 10 -15 26 -15 19 0 24 -4 20 -17 -2
-10 -7 -28 -11 -40 -5 -17 -2 -23 9 -23 9 0 19 15 26 40 9 33 15 40 35 40 22
0 23 -2 14 -32 -12 -43 -12 -48 5 -48 8 0 18 16 23 38 7 30 14 38 36 40 31 4
37 32 7 32 -11 0 -20 6 -20 14 0 30 13 46 36 46 15 0 24 6 24 15 0 8 -9 15
-20 15 -23 0 -23 1 -11 53 8 33 7 38 -7 35 -11 -2 -20 -19 -26 -46 -7 -35 -13
-42 -33 -42 -19 0 -23 4 -19 18 17 59 18 72 3 72 -9 0 -18 -8 -20 -17z m49
-119 c-3 -9 -6 -22 -6 -30 0 -8 -10 -14 -25 -14 -27 0 -28 3 -19 38 5 15 14
22 31 22 19 0 24 -4 19 -16z"/>
<path d="M2877 2183 c-3 -10 -8 -30 -11 -45 -5 -23 -12 -28 -36 -28 -20 0 -30
-5 -30 -15 0 -10 10 -15 26 -15 22 0 25 -3 20 -22 -3 -13 -6 -26 -6 -30 0 -5
-13 -8 -30 -8 -20 0 -30 -5 -30 -15 0 -9 10 -15 26 -15 19 0 24 -4 20 -17 -2
-10 -7 -28 -11 -40 -5 -17 -2 -23 9 -23 9 0 19 15 26 40 9 33 15 40 35 40 22
0 23 -2 14 -32 -12 -43 -12 -48 5 -48 8 0 18 16 23 38 7 30 14 38 36 40 31 4
37 32 7 32 -11 0 -20 6 -20 14 0 30 13 46 36 46 15 0 24 6 24 15 0 8 -9 15
-20 15 -23 0 -23 1 -11 53 8 33 7 38 -7 35 -11 -2 -20 -19 -26 -46 -7 -35 -13
-42 -33 -42 -19 0 -23 4 -19 18 17 59 18 72 3 72 -9 0 -18 -8 -20 -17z m49
-119 c-3 -9 -6 -22 -6 -30 0 -8 -10 -14 -25 -14 -27 0 -28 3 -19 38 5 15 14
22 31 22 19 0 24 -4 19 -16z"/>
<path d="M4027 2183 c-3 -10 -8 -30 -11 -45 -5 -23 -12 -28 -36 -28 -20 0 -30
-5 -30 -15 0 -10 10 -15 26 -15 22 0 25 -3 20 -22 -3 -13 -6 -26 -6 -30 0 -5
-13 -8 -30 -8 -20 0 -30 -5 -30 -15 0 -9 10 -15 26 -15 19 0 24 -4 20 -17 -2
-10 -7 -28 -11 -40 -5 -17 -2 -23 9 -23 9 0 19 15 26 40 9 33 15 40 35 40 22
0 23 -2 14 -32 -12 -43 -12 -48 5 -48 8 0 18 16 23 38 7 30 14 38 36 40 31 4
37 32 7 32 -11 0 -20 6 -20 14 0 30 13 46 36 46 15 0 24 6 24 15 0 8 -9 15
-20 15 -23 0 -23 1 -11 53 8 33 7 38 -7 35 -11 -2 -20 -19 -26 -46 -7 -35 -13
-42 -33 -42 -19 0 -23 4 -19 18 17 59 18 72 3 72 -9 0 -18 -8 -20 -17z m49
-119 c-3 -9 -6 -22 -6 -30 0 -8 -10 -14 -25 -14 -27 0 -28 3 -19 38 5 15 14
22 31 22 19 0 24 -4 19 -16z"/>
<path d="M5177 2183 c-3 -10 -8 -30 -11 -45 -5 -23 -12 -28 -36 -28 -20 0 -30
-5 -30 -15 0 -10 10 -15 26 -15 22 0 25 -3 20 -22 -3 -13 -6 -26 -6 -30 0 -5
-13 -8 -30 -8 -20 0 -30 -5 -30 -15 0 -9 10 -15 26 -15 19 0 24 -4 20 -17 -2
-10 -7 -28 -11 -40 -5 -17 -2 -23 9 -23 9 0 19 15 26 40 9 33 15 40 35 40 22
0 23 -2 14 -32 -12 -43 -12 -48 5 -48 8 0 18 16 23 38 7 30 14 38 36 40 31 4
37 32 7 32 -11 0 -20 6 -20 14 0 30 13 46 36 46 15 0 24 6 24 15 0 8 -9 15
-20 15 -23 0 -23 1 -11 53 8 33 7 38 -7 35 -11 -2 -20 -19 -26 -46 -7 -35 -13
-42 -33 -42 -19 0 -23 4 -19 18 17 59 18 72 3 72 -9 0 -18 -8 -20 -17z m49
-119 c-3 -9 -6 -22 -6 -30 0 -8 -10 -14 -25 -14 -27 0 -28 3 -19 38 5 15 14
22 31 22 19 0 24 -4 19 -16z"/>
<path d="M5867 2183 c-3 -10 -8 -30 -11 -45 -5 -23 -12 -28 -36 -28 -20 0 -30
-5 -30 -15 0 -10 10 -15 26 -15 22 0 25 -3 20 -22 -3 -13 -6 -26 -6 -30 0 -5
-13 -8 -30 -8 -20 0 -30 -5 -30 -15 0 -9 10 -15 26 -15 19 0 24 -4 20 -17 -2
-10 -7 -28 -11 -40 -5 -17 -2 -23 9 -23 9 0 19 15 26 40 9 33 15 40 35 40 22
0 23 -2 14 -32 -12 -43 -12 -48 5 -48 8 0 18 16 23 38 7 30 14 38 36 40 31 4
37 32 7 32 -11 0 -20 6 -20 14 0 30 13 46 36 46 15 0 24 6 24 15 0 8 -9 15
-20 15 -23 0 -23 1 -11 53 8 33 7 38 -7 35 -11 -2 -20 -19 -26 -46 -7 -35 -13
-42 -33 -42 -19 0 -23 4 -19 18 17 59 18 72 3 72 -9 0 -18 -8 -20 -17z m49
-119 c-3 -9 -6 -22 -6 -30 0 -8 -10 -14 -25 -14 -27 0 -28 3 -19 38 5 15 14
22 31 22 19 0 24 -4 19 -16z"/>
<path d="M6557 2183 c-3 -10 -8 -30 -11 -45 -5 -23 -12 -28 -36 -28 -20 0 -30
-5 -30 -15 0 -10 10 -15 26 -15 22 0 25 -3 20 -22 -3 -13 -6 -26 -6 -30 0 -5
-13 -8 -30 -8 -20 0 -30 -5 -30 -15 0 -9 10 -15 26 -15 19 0 24 -4 20 -17 -2
-10 -7 -28 -11 -40 -5 -17 -2 -23 9 -23 9 0 19 15 26 40 9 33 15 40 35 40 22
0 23 -2 14 -32 -12 -43 -12 -48 5 -48 8 0 18 16 23 38 7 30 14 38 36 40 31 4
37 32 7 32 -11 0 -20 6 -20 14 0 30 13 46 36 46 15 0 24 6 24 15 0 8 -9 15
-20 15 -23 0 -23 1 -11 53 8 33 7 38 -7 35 -11 -2 -20 -19 -26 -46 -7 -35 -13
-42 -33 -42 -19 0 -23 4 -19 18 17 59 18 72 3 72 -9 0 -18 -8 -20 -17z m49
-119 c-3 -9 -6 -22 -6 -30 0 -8 -10 -14 -25 -14 -27 0 -28 3 -19 38 5 15 14
22 31 22 19 0 24 -4 19 -16z"/>
<path d="M7707 2183 c-3 -10 -8 -30 -11 -45 -5 -23 -12 -28 -36 -28 -20 0 -30
-5 -30 -15 0 -10 10 -15 26 -15 22 0 25 -3 20 -22 -3 -13 -6 -26 -6 -30 0 -5
-13 -8 -30 -8 -20 0 -30 -5 -30 -15 0 -9 10 -15 26 -15 19 0 24 -4 20 -17 -2
-10 -7 -28 -11 -40 -5 -17 -2 -23 9 -23 9 0 19 15 26 40 9 33 15 40 35 40 22
0 23 -2 14 -32 -12 -43 -12 -48 5 -48 8 0 18 16 23 38 7 30 14 38 36 40 31 4
37 32 7 32 -11 0 -20 6 -20 14 0 30 13 46 36 46 15 0 24 6 24 15 0 8 -9 15
-20 15 -23 0 -23 1 -11 53 8 33 7 38 -7 35 -11 -2 -20 -19 -26 -46 -7 -35 -13
-42 -33 -42 -19 0 -23 4 -19 18 17 59 18 72 3 72 -9 0 -18 -8 -20 -17z m49
-119 c-3 -9 -6 -22 -6 -30 0 -8 -10 -14 -25 -14 -27 0 -28 3 -19 38 5 15 14
22 31 22 19 0 24 -4 19 -16z"/>
<path d="M8167 2183 c-3 -10 -8 -30 -11 -45 -5 -23 -12 -28 -36 -28 -20 0 -30
-5 -30 -15 0 -10 10 -15 26 -15 22 0 25 -3 20 -22 -3 -13 -6 -26 -6 -30 0 -5
-13 -8 -30 -8 -20 0 -30 -5 -30 -15 0 -9 10 -15 26 -15 19 0 24 -4 20 -17 -2
-10 -7 -28 -11 -40 -5 -17 -2 -23 9 -23 9 0 19 15 26 40 9 33 15 40 35 40 22
0 23 -2 14 -32 -12 -43 -12 -48 5 -48 8 0 18 16 23 38 7 30 14 38 36 40 31 4
37 32 7 32 -11 0 -20 6 -20 14 0 30 13 46 36 46 15 0 24 6 24 15 0 8 -9 15
-20 15 -23 0 -23 1 -11 53 8 33 7 38 -7 35 -11 -2 -20 -19 -26 -46 -7 -35 -13
-42 -33 -42 -19 0 -23 4 -19 18 17 59 18 72 3 72 -9 0 -18 -8 -20 -17z m49
-119 c-3 -9 -6 -22 -6 -30 0 -8 -10 -14 -25 -14 -27 0 -28 3 -19 38 5 15 14
22 31 22 19 0 24 -4 19 -16z"/>
<path d="M9317 2183 c-3 -10 -8 -30 -11 -45 -5 -23 -12 -28 -36 -28 -20 0 -30
-5 -30 -15 0 -10 10 -15 26 -15 22 0 25 -3 20 -22 -3 -13 -6 -26 -6 -30 0 -5
-13 -8 -30 -8 -20 0 -30 -5 -30 -15 0 -9 10 -15 26 -15 19 0 24 -4 20 -17 -2
-10 -7 -28 -11 -40 -5 -17 -2 -23 9 -23 9 0 19 15 26 40 9 33 15 40 35 40 22
0 23 -2 14 -32 -12 -43 -12 -48 5 -48 8 0 18 16 23 38 7 30 14 38 36 40 31 4
37 32 7 32 -11 0 -20 6 -20 14 0 30 13 46 36 46 15 0 24 6 24 15 0 8 -9 15
-20 15 -23 0 -23 1 -11 53 8 33 7 38 -7 35 -11 -2 -20 -19 -26 -46 -7 -35 -13
-42 -33 -42 -19 0 -23 4 -19 18 17 59 18 72 3 72 -9 0 -18 -8 -20 -17z m49
-119 c-3 -9 -6 -22 -6 -30 0 -8 -10 -14 -25 -14 -27 0 -28 3 -19 38 5 15 14
22 31 22 19 0 24 -4 19 -16z"/>
<path d="M9777 2183 c-3 -10 -8 -30 -11 -45 -5 -23 -12 -28 -36 -28 -20 0 -30
-5 -30 -15 0 -10 10 -15 26 -15 22 0 25 -3 20 -22 -3 -13 -6 -26 -6 -30 0 -5
-13 -8 -30 -8 -20 0 -30 -5 -30 -15 0 -9 10 -15 26 -15 19 0 24 -4 20 -17 -2
-10 -7 -28 -11 -40 -5 -17 -2 -23 9 -23 9 0 19 15 26 40 9 33 15 40 35 40 22
0 23 -2 14 -32 -12 -43 -12 -48 5 -48 8 0 18 16 23 38 7 30 14 38 36 40 31 4
37 32 7 32 -11 0 -20 6 -20 14 0 30 13 46 36 46 15 0 24 6 24 15 0 8 -9 15
-20 15 -23 0 -23 1 -11 53 8 33 7 38 -7 35 -11 -2 -20 -19 -26 -46 -7 -35 -13
-42 -33 -42 -19 0 -23 4 -19 18 17 59 18 72 3 72 -9 0 -18 -8 -20 -17z m49
-119 c-3 -9 -6 -22 -6 -30 0 -8 -10 -14 -25 -14 -27 0 -28 3 -19 38 5 15 14
22 31 22 19 0 24 -4 19 -16z"/>
<path d="M117 1733 c-3 -10 -8 -30 -11 -45 -5 -23 -12 -28 -36 -28 -20 0 -30
-5 -30 -15 0 -10 10 -15 26 -15 22 0 25 -3 20 -22 -3 -13 -6 -26 -6 -30 0 -5
-13 -8 -30 -8 -20 0 -30 -5 -30 -15 0 -9 10 -15 26 -15 19 0 24 -4 20 -17 -2
-10 -7 -28 -11 -40 -5 -17 -2 -23 9 -23 9 0 19 15 26 40 9 33 15 40 35 40 22
0 23 -2 14 -32 -12 -43 -12 -48 5 -48 8 0 18 16 23 38 7 30 14 38 36 40 31 4
37 32 7 32 -11 0 -20 6 -20 14 0 30 13 46 36 46 15 0 24 6 24 15 0 8 -9 15
-20 15 -23 0 -23 1 -11 53 8 33 7 38 -7 35 -11 -2 -20 -19 -26 -46 -7 -35 -13
-42 -33 -42 -19 0 -23 4 -19 18 17 59 18 72 3 72 -9 0 -18 -8 -20 -17z m49
-119 c-3 -9 -6 -22 -6 -30 0 -8 -10 -14 -25 -14 -27 0 -28 3 -19 38 5 15 14
22 31 22 19 0 24 -4 19 -16z"/>
<path d="M1497 1733 c-3 -10 -8 -30 -11 -45 -5 -23 -12 -28 -36 -28 -20 0 -30
-5 -30 -15 0 -10 10 -15 26 -15 22 0 25 -3 20 -22 -3 -13 -6 -26 -6 -30 0 -5
-13 -8 -30 -8 -20 0 -30 -5 -30 -15 0 -9 10 -15 26 -15 19 0 24 -4 20 -17 -2
-10 -7 -28 -11 -40 -5 -17 -2 -23 9 -23 9 0 19 15 26 40 9 33 15 40 35 40 22
0 23 -2 14 -32 -12 -43 -12 -48 5 -48 8 0 18 16 23 38 7 30 14 38 36 40 31 4
37 32 7 32 -11 0 -20 6 -20 14 0 30 13 46 36 46 15 0 24 6 24 15 0 8 -9 15
-20 15 -23 0 -23 1 -11 53 8 33 7 38 -7 35 -11 -2 -20 -19 -26 -46 -7 -35 -13
-42 -33 -42 -19 0 -23 4 -19 18 17 59 18 72 3 72 -9 0 -18 -8 -20 -17z m49
-119 c-3 -9 -6 -22 -6 -30 0 -8 -10 -14 -25 -14 -27 0 -28 3 -19 38 5 15 14
22 31 22 19 0 24 -4 19 -16z"/>
<path d="M1957 1733 c-3 -10 -8 -30 -11 -45 -5 -23 -12 -28 -36 -28 -20 0 -30
-5 -30 -15 0 -10 10 -15 26 -15 22 0 25 -3 20 -22 -3 -13 -6 -26 -6 -30 0 -5
-13 -8 -30 -8 -20 0 -30 -5 -30 -15 0 -9 10 -15 26 -15 19 0 24 -4 20 -17 -2
-10 -7 -28 -11 -40 -5 -17 -2 -23 9 -23 9 0 19 15 26 40 9 33 15 40 35 40 22
0 23 -2 14 -32 -12 -43 -12 -48 5 -48 8 0 18 16 23 38 7 30 14 38 36 40 31 4
37 32 7 32 -11 0 -20 6 -20 14 0 30 13 46 36 46 15 0 24 6 24 15 0 8 -9 15
-20 15 -23 0 -23 1 -11 53 8 33 7 38 -7 35 -11 -2 -20 -19 -26 -46 -7 -35 -13
-42 -33 -42 -19 0 -23 4 -19 18 17 59 18 72 3 72 -9 0 -18 -8 -20 -17z m49
-119 c-3 -9 -6 -22 -6 -30 0 -8 -10 -14 -25 -14 -27 0 -28 3 -19 38 5 15 14
22 31 22 19 0 24 -4 19 -16z"/>
<path d="M3107 1733 c-3 -10 -8 -30 -11 -45 -5 -23 -12 -28 -36 -28 -20 0 -30
-5 -30 -15 0 -10 10 -15 26 -15 22 0 25 -3 20 -22 -3 -13 -6 -26 -6 -30 0 -5
-13 -8 -30 -8 -20 0 -30 -5 -30 -15 0 -9 10 -15 26 -15 19 0 24 -4 20 -17 -2
-10 -7 -28 -11 -40 -5 -17 -2 -23 9 -23 9 0 19 15 26 40 9 33 15 40 35 40 22
0 23 -2 14 -32 -12 -43 -12 -48 5 -48 8 0 18 16 23 38 7 30 14 38 36 40 31 4
37 32 7 32 -11 0 -20 6 -20 14 0 30 13 46 36 46 15 0 24 6 24 15 0 8 -9 15
-20 15 -23 0 -23 1 -11 53 8 33 7 38 -7 35 -11 -2 -20 -19 -26 -46 -7 -35 -13
-42 -33 -42 -19 0 -23 4 -19 18 17 59 18 72 3 72 -9 0 -18 -8 -20 -17z m49
-119 c-3 -9 -6 -22 -6 -30 0 -8 -10 -14 -25 -14 -27 0 -28 3 -19 38 5 15 14
22 31 22 19 0 24 -4 19 -16z"/>
<path d="M4027 1733 c-3 -10 -8 -30 -11 -45 -5 -23 -12 -28 -36 -28 -20 0 -30
-5 -30 -15 0 -10 10 -15 26 -15 22 0 25 -3 20 -22 -3 -13 -6 -26 -6 -30 0 -5
-13 -8 -30 -8 -20 0 -30 -5 -30 -15 0 -9 10 -15 26 -15 19 0 24 -4 20 -17 -2
-10 -7 -28 -11 -40 -5 -17 -2 -23 9 -23 9 0 19 15 26 40 9 33 15 40 35 40 22
0 23 -2 14 -32 -12 -43 -12 -48 5 -48 8 0 18 16 23 38 7 30 14 38 36 40 31 4
37 32 7 32 -11 0 -20 6 -20 14 0 30 13 46 36 46 15 0 24 6 24 15 0 8 -9 15
-20 15 -23 0 -23 1 -11 53 8 33 7 38 -7 35 -11 -2 -20 -19 -26 -46 -7 -35 -13
-42 -33 -42 -19 0 -23 4 -19 18 17 59 18 72 3 72 -9 0 -18 -8 -20 -17z m49
-119 c-3 -9 -6 -22 -6 -30 0 -8 -10 -14 -25 -14 -27 0 -28 3 -19 38 5 15 14
22 31 22 19 0 24 -4 19 -16z"/>
<path d="M4947 1733 c-3 -10 -8 -30 -11 -45 -5 -23 -12 -28 -36 -28 -20 0 -30
-5 -30 -15 0 -10 10 -15 26 -15 22 0 25 -3 20 -22 -3 -13 -6 -26 -6 -30 0 -5
-13 -8 -30 -8 -20 0 -30 -5 -30 -15 0 -9 10 -15 26 -15 19 0 24 -4 20 -17 -2
-10 -7 -28 -11 -40 -5 -17 -2 -23 9 -23 9 0 19 15 26 40 9 33 15 40 35 40 22
0 23 -2 14 -32 -12 -43 -12 -48 5 -48 8 0 18 16 23 38 7 30 14 38 36 40 31 4
37 32 7 32 -11 0 -20 6 -20 14 0 30 13 46 36 46 15 0 24 6 24 15 0 8 -9 15
-20 15 -23 0 -23 1 -11 53 8 33 7 38 -7 35 -11 -2 -20 -19 -26 -46 -7 -35 -13
-42 -33 -42 -19 0 -23 4 -19 18 17 59 18 72 3 72 -9 0 -18 -8 -20 -17z m49
-119 c-3 -9 -6 -22 -6 -30 0 -8 -10 -14 -25 -14 -27 0 -28 3 -19 38 5 15 14
22 31 22 19 0 24 -4 19 -16z"/>
<path d="M6097 1733 c-3 -10 -8 -30 -11 -45 -5 -23 -12 -28 -36 -28 -20 0 -30
-5 -30 -15 0 -10 10 -15 26 -15 22 0 25 -3 20 -22 -3 -13 -6 -26 -6 -30 0 -5
-13 -8 -30 -8 -20 0 -30 -5 -30 -15 0 -9 10 -15 26 -15 19 0 24 -4 20 -17 -2
-10 -7 -28 -11 -40 -5 -17 -2 -23 9 -23 9 0 19 15 26 40 9 33 15 40 35 40 22
0 23 -2 14 -32 -12 -43 -12 -48 5 -48 8 0 18 16 23 38 7 30 14 38 36 40 31 4
37 32 7 32 -11 0 -20 6 -20 14 0 30 13 46 36 46 15 0 24 6 24 15 0 8 -9 15
-20 15 -23 0 -23 1 -11 53 8 33 7 38 -7 35 -11 -2 -20 -19 -26 -46 -7 -35 -13
-42 -33 -42 -19 0 -23 4 -19 18 17 59 18 72 3 72 -9 0 -18 -8 -20 -17z m49
-119 c-3 -9 -6 -22 -6 -30 0 -8 -10 -14 -25 -14 -27 0 -28 3 -19 38 5 15 14
22 31 22 19 0 24 -4 19 -16z"/>
<path d="M6557 1733 c-3 -10 -8 -30 -11 -45 -5 -23 -12 -28 -36 -28 -20 0 -30
-5 -30 -15 0 -10 10 -15 26 -15 22 0 25 -3 20 -22 -3 -13 -6 -26 -6 -30 0 -5
-13 -8 -30 -8 -20 0 -30 -5 -30 -15 0 -9 10 -15 26 -15 19 0 24 -4 20 -17 -2
-10 -7 -28 -11 -40 -5 -17 -2 -23 9 -23 9 0 19 15 26 40 9 33 15 40 35 40 22
0 23 -2 14 -32 -12 -43 -12 -48 5 -48 8 0 18 16 23 38 7 30 14 38 36 40 31 4
37 32 7 32 -11 0 -20 6 -20 14 0 30 13 46 36 46 15 0 24 6 24 15 0 8 -9 15
-20 15 -23 0 -23 1 -11 53 8 33 7 38 -7 35 -11 -2 -20 -19 -26 -46 -7 -35 -13
-42 -33 -42 -19 0 -23 4 -19 18 17 59 18 72 3 72 -9 0 -18 -8 -20 -17z m49
-119 c-3 -9 -6 -22 -6 -30 0 -8 -10 -14 -25 -14 -27 0 -28 3 -19 38 5 15 14
22 31 22 19 0 24 -4 19 -16z"/>
<path d="M6787 1733 c-3 -10 -8 -30 -11 -45 -5 -23 -12 -28 -36 -28 -20 0 -30
-5 -30 -15 0 -10 10 -15 26 -15 22 0 25 -3 20 -22 -3 -13 -6 -26 -6 -30 0 -5
-13 -8 -30 -8 -20 0 -30 -5 -30 -15 0 -9 10 -15 26 -15 19 0 24 -4 20 -17 -2
-10 -7 -28 -11 -40 -5 -17 -2 -23 9 -23 9 0 19 15 26 40 9 33 15 40 35 40 22
0 23 -2 14 -32 -12 -43 -12 -48 5 -48 8 0 18 16 23 38 7 30 14 38 36 40 31 4
37 32 7 32 -11 0 -20 6 -20 14 0 30 13 46 36 46 15 0 24 6 24 15 0 8 -9 15
-20 15 -23 0 -23 1 -11 53 8 33 7 38 -7 35 -11 -2 -20 -19 -26 -46 -7 -35 -13
-42 -33 -42 -19 0 -23 4 -19 18 17 59 18 72 3 72 -9 0 -18 -8 -20 -17z m49
-119 c-3 -9 -6 -22 -6 -30 0 -8 -10 -14 -25 -14 -27 0 -28 3 -19 38 5 15 14
22 31 22 19 0 24 -4 19 -16z"/>
<path d="M7017 1733 c-3 -10 -8 -30 -11 -45 -5 -23 -12 -28 -36 -28 -20 0 -30
-5 -30 -15 0 -10 10 -15 26 -15 22 0 25 -3 20 -22 -3 -13 -6 -26 -6 -30 0 -5
-13 -8 -30 -8 -20 0 -30 -5 -30 -15 0 -9 10 -15 26 -15 19 0 24 -4 20 -17 -2
-10 -7 -28 -11 -40 -5 -17 -2 -23 9 -23 9 0 19 15 26 40 9 33 15 40 35 40 22
0 23 -2 14 -32 -12 -43 -12 -48 5 -48 8 0 18 16 23 38 7 30 14 38 36 40 31 4
37 32 7 32 -11 0 -20 6 -20 14 0 30 13 46 36 46 15 0 24 6 24 15 0 8 -9 15
-20 15 -23 0 -23 1 -11 53 8 33 7 38 -7 35 -11 -2 -20 -19 -26 -46 -7 -35 -13
-42 -33 -42 -19 0 -23 4 -19 18 17 59 18 72 3 72 -9 0 -18 -8 -20 -17z m49
-119 c-3 -9 -6 -22 -6 -30 0 -8 -10 -14 -25 -14 -27 0 -28 3 -19 38 5 15 14
22 31 22 19 0 24 -4 19 -16z"/>
<path d="M7247 1733 c-3 -10 -8 -30 -11 -45 -5 -23 -12 -28 -36 -28 -20 0 -30
-5 -30 -15 0 -10 10 -15 26 -15 22 0 25 -3 20 -22 -3 -13 -6 -26 -6 -30 0 -5
-13 -8 -30 -8 -20 0 -30 -5 -30 -15 0 -9 10 -15 26 -15 19 0 24 -4 20 -17 -2
-10 -7 -28 -11 -40 -5 -17 -2 -23 9 -23 9 0 19 15 26 40 9 33 15 40 35 40 22
0 23 -2 14 -32 -12 -43 -12 -48 5 -48 8 0 18 16 23 38 7 30 14 38 36 40 31 4
37 32 7 32 -11 0 -20 6 -20 14 0 30 13 46 36 46 15 0 24 6 24 15 0 8 -9 15
-20 15 -23 0 -23 1 -11 53 8 33 7 38 -7 35 -11 -2 -20 -19 -26 -46 -7 -35 -13
-42 -33 -42 -19 0 -23 4 -19 18 17 59 18 72 3 72 -9 0 -18 -8 -20 -17z m49
-119 c-3 -9 -6 -22 -6 -30 0 -8 -10 -14 -25 -14 -27 0 -28 3 -19 38 5 15 14
22 31 22 19 0 24 -4 19 -16z"/>
<path d="M7477 1733 c-3 -10 -8 -30 -11 -45 -5 -23 -12 -28 -36 -28 -20 0 -30
-5 -30 -15 0 -10 10 -15 26 -15 22 0 25 -3 20 -22 -3 -13 -6 -26 -6 -30 0 -5
-13 -8 -30 -8 -20 0 -30 -5 -30 -15 0 -9 10 -15 26 -15 19 0 24 -4 20 -17 -2
-10 -7 -28 -11 -40 -5 -17 -2 -23 9 -23 9 0 19 15 26 40 9 33 15 40 35 40 22
0 23 -2 14 -32 -12 -43 -12 -48 5 -48 8 0 18 16 23 38 7 30 14 38 36 40 31 4
37 32 7 32 -11 0 -20 6 -20 14 0 30 13 46 36 46 15 0 24 6 24 15 0 8 -9 15
-20 15 -23 0 -23 1 -11 53 8 33 7 38 -7 35 -11 -2 -20 -19 -26 -46 -7 -35 -13
-42 -33 -42 -19 0 -23 4 -19 18 17 59 18 72 3 72 -9 0 -18 -8 -20 -17z m49
-119 c-3 -9 -6 -22 -6 -30 0 -8 -10 -14 -25 -14 -27 0 -28 3 -19 38 5 15 14
22 31 22 19 0 24 -4 19 -16z"/>
<path d="M8167 1733 c-3 -10 -8 -30 -11 -45 -5 -23 -12 -28 -36 -28 -20 0 -30
-5 -30 -15 0 -10 10 -15 26 -15 22 0 25 -3 20 -22 -3 -13 -6 -26 -6 -30 0 -5
-13 -8 -30 -8 -20 0 -30 -5 -30 -15 0 -9 10 -15 26 -15 19 0 24 -4 20 -17 -2
-10 -7 -28 -11 -40 -5 -17 -2 -23 9 -23 9 0 19 15 26 40 9 33 15 40 35 40 22
0 23 -2 14 -32 -12 -43 -12 -48 5 -48 8 0 18 16 23 38 7 30 14 38 36 40 31 4
37 32 7 32 -11 0 -20 6 -20 14 0 30 13 46 36 46 15 0 24 6 24 15 0 8 -9 15
-20 15 -23 0 -23 1 -11 53 8 33 7 38 -7 35 -11 -2 -20 -19 -26 -46 -7 -35 -13
-42 -33 -42 -19 0 -23 4 -19 18 17 59 18 72 3 72 -9 0 -18 -8 -20 -17z m49
-119 c-3 -9 -6 -22 -6 -30 0 -8 -10 -14 -25 -14 -27 0 -28 3 -19 38 5 15 14
22 31 22 19 0 24 -4 19 -16z"/>
<path d="M9317 1733 c-3 -10 -8 -30 -11 -45 -5 -23 -12 -28 -36 -28 -20 0 -30
-5 -30 -15 0 -10 10 -15 26 -15 22 0 25 -3 20 -22 -3 -13 -6 -26 -6 -30 0 -5
-13 -8 -30 -8 -20 0 -30 -5 -30 -15 0 -9 10 -15 26 -15 19 0 24 -4 20 -17 -2
-10 -7 -28 -11 -40 -5 -17 -2 -23 9 -23 9 0 19 15 26 40 9 33 15 40 35 40 22
0 23 -2 14 -32 -12 -43 -12 -48 5 -48 8 0 18 16 23 38 7 30 14 38 36 40 31 4
37 32 7 32 -11 0 -20 6 -20 14 0 30 13 46 36 46 15 0 24 6 24 15 0 8 -9 15
-20 15 -23 0 -23 1 -11 53 8 33 7 38 -7 35 -11 -2 -20 -19 -26 -46 -7 -35 -13
-42 -33 -42 -19 0 -23 4 -19 18 17 59 18 72 3 72 -9 0 -18 -8 -20 -17z m49
-119 c-3 -9 -6 -22 -6 -30 0 -8 -10 -14 -25 -14 -27 0 -28 3 -19 38 5 15 14
22 31 22 19 0 24 -4 19 -16z"/>
<path d="M10007 1733 c-3 -10 -8 -30 -11 -45 -5 -23 -12 -28 -36 -28 -20 0
-30 -5 -30 -15 0 -10 10 -15 26 -15 22 0 25 -3 20 -22 -3 -13 -6 -26 -6 -30 0
-5 -13 -8 -30 -8 -20 0 -30 -5 -30 -15 0 -9 10 -15 26 -15 19 0 24 -4 20 -17
-2 -10 -7 -28 -11 -40 -5 -17 -2 -23 9 -23 9 0 19 15 26 40 9 33 15 40 35 40
22 0 23 -2 14 -32 -12 -43 -12 -48 5 -48 8 0 18 16 23 38 7 30 14 38 36 40 31
4 37 32 7 32 -11 0 -20 6 -20 14 0 30 13 46 36 46 15 0 24 6 24 15 0 8 -9 15
-20 15 -23 0 -23 1 -11 53 8 33 7 38 -7 35 -11 -2 -20 -19 -26 -46 -7 -35 -13
-42 -33 -42 -19 0 -23 4 -19 18 17 59 18 72 3 72 -9 0 -18 -8 -20 -17z m49
-119 c-3 -9 -6 -22 -6 -30 0 -8 -10 -14 -25 -14 -27 0 -28 3 -19 38 5 15 14
22 31 22 19 0 24 -4 19 -16z"/>
<path d="M10237 1733 c-3 -10 -8 -30 -11 -45 -5 -23 -12 -28 -36 -28 -20 0
-30 -5 -30 -15 0 -10 10 -15 26 -15 22 0 25 -3 20 -22 -3 -13 -6 -26 -6 -30 0
-5 -13 -8 -30 -8 -20 0 -30 -5 -30 -15 0 -9 10 -15 26 -15 19 0 24 -4 20 -17
-2 -10 -7 -28 -11 -40 -5 -17 -2 -23 9 -23 9 0 19 15 26 40 9 33 15 40 35 40
22 0 23 -2 14 -32 -12 -43 -12 -48 5 -48 8 0 18 16 23 38 7 30 14 38 36 40 31
4 37 32 7 32 -11 0 -20 6 -20 14 0 30 13 46 36 46 15 0 24 6 24 15 0 8 -9 15
-20 15 -23 0 -23 1 -11 53 8 33 7 38 -7 35 -11 -2 -20 -19 -26 -46 -7 -35 -13
-42 -33 -42 -19 0 -23 4 -19 18 17 59 18 72 3 72 -9 0 -18 -8 -20 -17z m49
-119 c-3 -9 -6 -22 -6 -30 0 -8 -10 -14 -25 -14 -27 0 -28 3 -19 38 5 15 14
22 31 22 19 0 24 -4 19 -16z"/>
<path d="M10467 1733 c-3 -10 -8 -30 -11 -45 -5 -23 -12 -28 -36 -28 -20 0
-30 -5 -30 -15 0 -10 10 -15 26 -15 22 0 25 -3 20 -22 -3 -13 -6 -26 -6 -30 0
-5 -13 -8 -30 -8 -20 0 -30 -5 -30 -15 0 -9 10 -15 26 -15 19 0 24 -4 20 -17
-2 -10 -7 -28 -11 -40 -5 -17 -2 -23 9 -23 9 0 19 15 26 40 9 33 15 40 35 40
22 0 23 -2 14 -32 -12 -43 -12 -48 5 -48 8 0 18 16 23 38 7 30 14 38 36 40 31
4 37 32 7 32 -11 0 -20 6 -20 14 0 30 13 46 36 46 15 0 24 6 24 15 0 8 -9 15
-20 15 -23 0 -23 1 -11 53 8 33 7 38 -7 35 -11 -2 -20 -19 -26 -46 -7 -35 -13
-42 -33 -42 -19 0 -23 4 -19 18 17 59 18 72 3 72 -9 0 -18 -8 -20 -17z m49
-119 c-3 -9 -6 -22 -6 -30 0 -8 -10 -14 -25 -14 -27 0 -28 3 -19 38 5 15 14
22 31 22 19 0 24 -4 19 -16z"/>
<path d="M10697 1733 c-3 -10 -8 -30 -11 -45 -5 -23 -12 -28 -36 -28 -20 0
-30 -5 -30 -15 0 -10 10 -15 26 -15 22 0 25 -3 20 -22 -3 -13 -6 -26 -6 -30 0
-5 -13 -8 -30 -8 -20 0 -30 -5 -30 -15 0 -9 10 -15 26 -15 19 0 24 -4 20 -17
-2 -10 -7 -28 -11 -40 -5 -17 -2 -23 9 -23 9 0 19 15 26 40 9 33 15 40 35 40
22 0 23 -2 14 -32 -12 -43 -12 -48 5 -48 8 0 18 16 23 38 7 30 14 38 36 40 31
4 37 32 7 32 -11 0 -20 6 -20 14 0 30 13 46 36 46 15 0 24 6 24 15 0 8 -9 15
-20 15 -23 0 -23 1 -11 53 8 33 7 38 -7 35 -11 -2 -20 -19 -26 -46 -7 -35 -13
-42 -33 -42 -19 0 -23 4 -19 18 17 59 18 72 3 72 -9 0 -18 -8 -20 -17z m49
-119 c-3 -9 -6 -22 -6 -30 0 -8 -10 -14 -25 -14 -27 0 -28 3 -19 38 5 15 14
22 31 22 19 0 24 -4 19 -16z"/>
<path d="M117 1283 c-3 -10 -8 -30 -11 -45 -5 -23 -12 -28 -36 -28 -20 0 -30
-5 -30 -15 0 -10 10 -15 26 -15 22 0 25 -3 20 -22 -3 -13 -6 -26 -6 -30 0 -5
-13 -8 -30 -8 -20 0 -30 -5 -30 -15 0 -9 10 -15 26 -15 19 0 24 -4 20 -17 -2
-10 -7 -28 -11 -40 -5 -17 -2 -23 9 -23 9 0 19 15 26 40 9 33 15 40 35 40 22
0 23 -2 14 -32 -12 -43 -12 -48 5 -48 8 0 18 16 23 38 7 30 14 38 36 40 31 4
37 32 7 32 -11 0 -20 6 -20 14 0 30 13 46 36 46 15 0 24 6 24 15 0 8 -9 15
-20 15 -23 0 -23 1 -11 53 8 33 7 38 -7 35 -11 -2 -20 -19 -26 -46 -7 -35 -13
-42 -33 -42 -19 0 -23 4 -19 18 17 59 18 72 3 72 -9 0 -18 -8 -20 -17z m49
-119 c-3 -9 -6 -22 -6 -30 0 -8 -10 -14 -25 -14 -27 0 -28 3 -19 38 5 15 14
22 31 22 19 0 24 -4 19 -16z"/>
<path d="M1497 1283 c-3 -10 -8 -30 -11 -45 -5 -23 -12 -28 -36 -28 -20 0 -30
-5 -30 -15 0 -10 10 -15 26 -15 22 0 25 -3 20 -22 -3 -13 -6 -26 -6 -30 0 -5
-13 -8 -30 -8 -20 0 -30 -5 -30 -15 0 -9 10 -15 26 -15 19 0 24 -4 20 -17 -2
-10 -7 -28 -11 -40 -5 -17 -2 -23 9 -23 9 0 19 15 26 40 9 33 15 40 35 40 22
0 23 -2 14 -32 -12 -43 -12 -48 5 -48 8 0 18 16 23 38 7 30 14 38 36 40 31 4
37 32 7 32 -11 0 -20 6 -20 14 0 30 13 46 36 46 15 0 24 6 24 15 0 8 -9 15
-20 15 -23 0 -23 1 -11 53 8 33 7 38 -7 35 -11 -2 -20 -19 -26 -46 -7 -35 -13
-42 -33 -42 -19 0 -23 4 -19 18 17 59 18 72 3 72 -9 0 -18 -8 -20 -17z m49
-119 c-3 -9 -6 -22 -6 -30 0 -8 -10 -14 -25 -14 -27 0 -28 3 -19 38 5 15 14
22 31 22 19 0 24 -4 19 -16z"/>
<path d="M1957 1283 c-3 -10 -8 -30 -11 -45 -5 -23 -12 -28 -36 -28 -20 0 -30
-5 -30 -15 0 -10 10 -15 26 -15 22 0 25 -3 20 -22 -3 -13 -6 -26 -6 -30 0 -5
-13 -8 -30 -8 -20 0 -30 -5 -30 -15 0 -9 10 -15 26 -15 19 0 24 -4 20 -17 -2
-10 -7 -28 -11 -40 -5 -17 -2 -23 9 -23 9 0 19 15 26 40 9 33 15 40 35 40 22
0 23 -2 14 -32 -12 -43 -12 -48 5 -48 8 0 18 16 23 38 7 30 14 38 36 40 31 4
37 32 7 32 -11 0 -20 6 -20 14 0 30 13 46 36 46 15 0 24 6 24 15 0 8 -9 15
-20 15 -23 0 -23 1 -11 53 8 33 7 38 -7 35 -11 -2 -20 -19 -26 -46 -7 -35 -13
-42 -33 -42 -19 0 -23 4 -19 18 17 59 18 72 3 72 -9 0 -18 -8 -20 -17z m49
-119 c-3 -9 -6 -22 -6 -30 0 -8 -10 -14 -25 -14 -27 0 -28 3 -19 38 5 15 14
22 31 22 19 0 24 -4 19 -16z"/>
<path d="M2187 1283 c-3 -10 -8 -30 -11 -45 -5 -23 -12 -28 -36 -28 -20 0 -30
-5 -30 -15 0 -10 10 -15 26 -15 22 0 25 -3 20 -22 -3 -13 -6 -26 -6 -30 0 -5
-13 -8 -30 -8 -20 0 -30 -5 -30 -15 0 -9 10 -15 26 -15 19 0 24 -4 20 -17 -2
-10 -7 -28 -11 -40 -5 -17 -2 -23 9 -23 9 0 19 15 26 40 9 33 15 40 35 40 22
0 23 -2 14 -32 -12 -43 -12 -48 5 -48 8 0 18 16 23 38 7 30 14 38 36 40 31 4
37 32 7 32 -11 0 -20 6 -20 14 0 30 13 46 36 46 15 0 24 6 24 15 0 8 -9 15
-20 15 -23 0 -23 1 -11 53 8 33 7 38 -7 35 -11 -2 -20 -19 -26 -46 -7 -35 -13
-42 -33 -42 -19 0 -23 4 -19 18 17 59 18 72 3 72 -9 0 -18 -8 -20 -17z m49
-119 c-3 -9 -6 -22 -6 -30 0 -8 -10 -14 -25 -14 -27 0 -28 3 -19 38 5 15 14
22 31 22 19 0 24 -4 19 -16z"/>
<path d="M2417 1283 c-3 -10 -8 -30 -11 -45 -5 -23 -12 -28 -36 -28 -20 0 -30
-5 -30 -15 0 -10 10 -15 26 -15 22 0 25 -3 20 -22 -3 -13 -6 -26 -6 -30 0 -5
-13 -8 -30 -8 -20 0 -30 -5 -30 -15 0 -9 10 -15 26 -15 19 0 24 -4 20 -17 -2
-10 -7 -28 -11 -40 -5 -17 -2 -23 9 -23 9 0 19 15 26 40 9 33 15 40 35 40 22
0 23 -2 14 -32 -12 -43 -12 -48 5 -48 8 0 18 16 23 38 7 30 14 38 36 40 31 4
37 32 7 32 -11 0 -20 6 -20 14 0 30 13 46 36 46 15 0 24 6 24 15 0 8 -9 15
-20 15 -23 0 -23 1 -11 53 8 33 7 38 -7 35 -11 -2 -20 -19 -26 -46 -7 -35 -13
-42 -33 -42 -19 0 -23 4 -19 18 17 59 18 72 3 72 -9 0 -18 -8 -20 -17z m49
-119 c-3 -9 -6 -22 -6 -30 0 -8 -10 -14 -25 -14 -27 0 -28 3 -19 38 5 15 14
22 31 22 19 0 24 -4 19 -16z"/>
<path d="M2647 1283 c-3 -10 -8 -30 -11 -45 -5 -23 -12 -28 -36 -28 -20 0 -30
-5 -30 -15 0 -10 10 -15 26 -15 22 0 25 -3 20 -22 -3 -13 -6 -26 -6 -30 0 -5
-13 -8 -30 -8 -20 0 -30 -5 -30 -15 0 -9 10 -15 26 -15 19 0 24 -4 20 -17 -2
-10 -7 -28 -11 -40 -5 -17 -2 -23 9 -23 9 0 19 15 26 40 9 33 15 40 35 40 22
0 23 -2 14 -32 -12 -43 -12 -48 5 -48 8 0 18 16 23 38 7 30 14 38 36 40 31 4
37 32 7 32 -11 0 -20 6 -20 14 0 30 13 46 36 46 15 0 24 6 24 15 0 8 -9 15
-20 15 -23 0 -23 1 -11 53 8 33 7 38 -7 35 -11 -2 -20 -19 -26 -46 -7 -35 -13
-42 -33 -42 -19 0 -23 4 -19 18 17 59 18 72 3 72 -9 0 -18 -8 -20 -17z m49
-119 c-3 -9 -6 -22 -6 -30 0 -8 -10 -14 -25 -14 -27 0 -28 3 -19 38 5 15 14
22 31 22 19 0 24 -4 19 -16z"/>
<path d="M2877 1283 c-3 -10 -8 -30 -11 -45 -5 -23 -12 -28 -36 -28 -20 0 -30
-5 -30 -15 0 -10 10 -15 26 -15 22 0 25 -3 20 -22 -3 -13 -6 -26 -6 -30 0 -5
-13 -8 -30 -8 -20 0 -30 -5 -30 -15 0 -9 10 -15 26 -15 19 0 24 -4 20 -17 -2
-10 -7 -28 -11 -40 -5 -17 -2 -23 9 -23 9 0 19 15 26 40 9 33 15 40 35 40 22
0 23 -2 14 -32 -12 -43 -12 -48 5 -48 8 0 18 16 23 38 7 30 14 38 36 40 31 4
37 32 7 32 -11 0 -20 6 -20 14 0 30 13 46 36 46 15 0 24 6 24 15 0 8 -9 15
-20 15 -23 0 -23 1 -11 53 8 33 7 38 -7 35 -11 -2 -20 -19 -26 -46 -7 -35 -13
-42 -33 -42 -19 0 -23 4 -19 18 17 59 18 72 3 72 -9 0 -18 -8 -20 -17z m49
-119 c-3 -9 -6 -22 -6 -30 0 -8 -10 -14 -25 -14 -27 0 -28 3 -19 38 5 15 14
22 31 22 19 0 24 -4 19 -16z"/>
<path d="M3107 1283 c-3 -10 -8 -30 -11 -45 -5 -23 -12 -28 -36 -28 -20 0 -30
-5 -30 -15 0 -10 10 -15 26 -15 22 0 25 -3 20 -22 -3 -13 -6 -26 -6 -30 0 -5
-13 -8 -30 -8 -20 0 -30 -5 -30 -15 0 -9 10 -15 26 -15 19 0 24 -4 20 -17 -2
-10 -7 -28 -11 -40 -5 -17 -2 -23 9 -23 9 0 19 15 26 40 9 33 15 40 35 40 22
0 23 -2 14 -32 -12 -43 -12 -48 5 -48 8 0 18 16 23 38 7 30 14 38 36 40 31 4
37 32 7 32 -11 0 -20 6 -20 14 0 30 13 46 36 46 15 0 24 6 24 15 0 8 -9 15
-20 15 -23 0 -23 1 -11 53 8 33 7 38 -7 35 -11 -2 -20 -19 -26 -46 -7 -35 -13
-42 -33 -42 -19 0 -23 4 -19 18 17 59 18 72 3 72 -9 0 -18 -8 -20 -17z m49
-119 c-3 -9 -6 -22 -6 -30 0 -8 -10 -14 -25 -14 -27 0 -28 3 -19 38 5 15 14
22 31 22 19 0 24 -4 19 -16z"/>
<path d="M4027 1283 c-3 -10 -8 -30 -11 -45 -5 -23 -12 -28 -36 -28 -20 0 -30
-5 -30 -15 0 -10 10 -15 26 -15 22 0 25 -3 20 -22 -3 -13 -6 -26 -6 -30 0 -5
-13 -8 -30 -8 -20 0 -30 -5 -30 -15 0 -9 10 -15 26 -15 19 0 24 -4 20 -17 -2
-10 -7 -28 -11 -40 -5 -17 -2 -23 9 -23 9 0 19 15 26 40 9 33 15 40 35 40 22
0 23 -2 14 -32 -12 -43 -12 -48 5 -48 8 0 18 16 23 38 7 30 14 38 36 40 31 4
37 32 7 32 -11 0 -20 6 -20 14 0 30 13 46 36 46 15 0 24 6 24 15 0 8 -9 15
-20 15 -23 0 -23 1 -11 53 8 33 7 38 -7 35 -11 -2 -20 -19 -26 -46 -7 -35 -13
-42 -33 -42 -19 0 -23 4 -19 18 17 59 18 72 3 72 -9 0 -18 -8 -20 -17z m49
-119 c-3 -9 -6 -22 -6 -30 0 -8 -10 -14 -25 -14 -27 0 -28 3 -19 38 5 15 14
22 31 22 19 0 24 -4 19 -16z"/>
<path d="M4947 1283 c-3 -10 -8 -30 -11 -45 -5 -23 -12 -28 -36 -28 -20 0 -30
-5 -30 -15 0 -10 10 -15 26 -15 22 0 25 -3 20 -22 -3 -13 -6 -26 -6 -30 0 -5
-13 -8 -30 -8 -20 0 -30 -5 -30 -15 0 -9 10 -15 26 -15 19 0 24 -4 20 -17 -2
-10 -7 -28 -11 -40 -5 -17 -2 -23 9 -23 9 0 19 15 26 40 9 33 15 40 35 40 22
0 23 -2 14 -32 -12 -43 -12 -48 5 -48 8 0 18 16 23 38 7 30 14 38 36 40 31 4
37 32 7 32 -11 0 -20 6 -20 14 0 30 13 46 36 46 15 0 24 6 24 15 0 8 -9 15
-20 15 -23 0 -23 1 -11 53 8 33 7 38 -7 35 -11 -2 -20 -19 -26 -46 -7 -35 -13
-42 -33 -42 -19 0 -23 4 -19 18 17 59 18 72 3 72 -9 0 -18 -8 -20 -17z m49
-119 c-3 -9 -6 -22 -6 -30 0 -8 -10 -14 -25 -14 -27 0 -28 3 -19 38 5 15 14
22 31 22 19 0 24 -4 19 -16z"/>
<path d="M5177 1283 c-3 -10 -8 -30 -11 -45 -5 -23 -12 -28 -36 -28 -20 0 -30
-5 -30 -15 0 -10 10 -15 26 -15 22 0 25 -3 20 -22 -3 -13 -6 -26 -6 -30 0 -5
-13 -8 -30 -8 -20 0 -30 -5 -30 -15 0 -9 10 -15 26 -15 19 0 24 -4 20 -17 -2
-10 -7 -28 -11 -40 -5 -17 -2 -23 9 -23 9 0 19 15 26 40 9 33 15 40 35 40 22
0 23 -2 14 -32 -12 -43 -12 -48 5 -48 8 0 18 16 23 38 7 30 14 38 36 40 31 4
37 32 7 32 -11 0 -20 6 -20 14 0 30 13 46 36 46 15 0 24 6 24 15 0 8 -9 15
-20 15 -23 0 -23 1 -11 53 8 33 7 38 -7 35 -11 -2 -20 -19 -26 -46 -7 -35 -13
-42 -33 -42 -19 0 -23 4 -19 18 17 59 18 72 3 72 -9 0 -18 -8 -20 -17z m49
-119 c-3 -9 -6 -22 -6 -30 0 -8 -10 -14 -25 -14 -27 0 -28 3 -19 38 5 15 14
22 31 22 19 0 24 -4 19 -16z"/>
<path d="M5407 1283 c-3 -10 -8 -30 -11 -45 -5 -23 -12 -28 -36 -28 -20 0 -30
-5 -30 -15 0 -10 10 -15 26 -15 22 0 25 -3 20 -22 -3 -13 -6 -26 -6 -30 0 -5
-13 -8 -30 -8 -20 0 -30 -5 -30 -15 0 -9 10 -15 26 -15 19 0 24 -4 20 -17 -2
-10 -7 -28 -11 -40 -5 -17 -2 -23 9 -23 9 0 19 15 26 40 9 33 15 40 35 40 22
0 23 -2 14 -32 -12 -43 -12 -48 5 -48 8 0 18 16 23 38 7 30 14 38 36 40 31 4
37 32 7 32 -11 0 -20 6 -20 14 0 30 13 46 36 46 15 0 24 6 24 15 0 8 -9 15
-20 15 -23 0 -23 1 -11 53 8 33 7 38 -7 35 -11 -2 -20 -19 -26 -46 -7 -35 -13
-42 -33 -42 -19 0 -23 4 -19 18 17 59 18 72 3 72 -9 0 -18 -8 -20 -17z m49
-119 c-3 -9 -6 -22 -6 -30 0 -8 -10 -14 -25 -14 -27 0 -28 3 -19 38 5 15 14
22 31 22 19 0 24 -4 19 -16z"/>
<path d="M5637 1283 c-3 -10 -8 -30 -11 -45 -5 -23 -12 -28 -36 -28 -20 0 -30
-5 -30 -15 0 -10 10 -15 26 -15 22 0 25 -3 20 -22 -3 -13 -6 -26 -6 -30 0 -5
-13 -8 -30 -8 -20 0 -30 -5 -30 -15 0 -9 10 -15 26 -15 19 0 24 -4 20 -17 -2
-10 -7 -28 -11 -40 -5 -17 -2 -23 9 -23 9 0 19 15 26 40 9 33 15 40 35 40 22
0 23 -2 14 -32 -12 -43 -12 -48 5 -48 8 0 18 16 23 38 7 30 14 38 36 40 31 4
37 32 7 32 -11 0 -20 6 -20 14 0 30 13 46 36 46 15 0 24 6 24 15 0 8 -9 15
-20 15 -23 0 -23 1 -11 53 8 33 7 38 -7 35 -11 -2 -20 -19 -26 -46 -7 -35 -13
-42 -33 -42 -19 0 -23 4 -19 18 17 59 18 72 3 72 -9 0 -18 -8 -20 -17z m49
-119 c-3 -9 -6 -22 -6 -30 0 -8 -10 -14 -25 -14 -27 0 -28 3 -19 38 5 15 14
22 31 22 19 0 24 -4 19 -16z"/>
<path d="M5867 1283 c-3 -10 -8 -30 -11 -45 -5 -23 -12 -28 -36 -28 -20 0 -30
-5 -30 -15 0 -10 10 -15 26 -15 22 0 25 -3 20 -22 -3 -13 -6 -26 -6 -30 0 -5
-13 -8 -30 -8 -20 0 -30 -5 -30 -15 0 -9 10 -15 26 -15 19 0 24 -4 20 -17 -2
-10 -7 -28 -11 -40 -5 -17 -2 -23 9 -23 9 0 19 15 26 40 9 33 15 40 35 40 22
0 23 -2 14 -32 -12 -43 -12 -48 5 -48 8 0 18 16 23 38 7 30 14 38 36 40 31 4
37 32 7 32 -11 0 -20 6 -20 14 0 30 13 46 36 46 15 0 24 6 24 15 0 8 -9 15
-20 15 -23 0 -23 1 -11 53 8 33 7 38 -7 35 -11 -2 -20 -19 -26 -46 -7 -35 -13
-42 -33 -42 -19 0 -23 4 -19 18 17 59 18 72 3 72 -9 0 -18 -8 -20 -17z m49
-119 c-3 -9 -6 -22 -6 -30 0 -8 -10 -14 -25 -14 -27 0 -28 3 -19 38 5 15 14
22 31 22 19 0 24 -4 19 -16z"/>
<path d="M6097 1283 c-3 -10 -8 -30 -11 -45 -5 -23 -12 -28 -36 -28 -20 0 -30
-5 -30 -15 0 -10 10 -15 26 -15 22 0 25 -3 20 -22 -3 -13 -6 -26 -6 -30 0 -5
-13 -8 -30 -8 -20 0 -30 -5 -30 -15 0 -9 10 -15 26 -15 19 0 24 -4 20 -17 -2
-10 -7 -28 -11 -40 -5 -17 -2 -23 9 -23 9 0 19 15 26 40 9 33 15 40 35 40 22
0 23 -2 14 -32 -12 -43 -12 -48 5 -48 8 0 18 16 23 38 7 30 14 38 36 40 31 4
37 32 7 32 -11 0 -20 6 -20 14 0 30 13 46 36 46 15 0 24 6 24 15 0 8 -9 15
-20 15 -23 0 -23 1 -11 53 8 33 7 38 -7 35 -11 -2 -20 -19 -26 -46 -7 -35 -13
-42 -33 -42 -19 0 -23 4 -19 18 17 59 18 72 3 72 -9 0 -18 -8 -20 -17z m49
-119 c-3 -9 -6 -22 -6 -30 0 -8 -10 -14 -25 -14 -27 0 -28 3 -19 38 5 15 14
22 31 22 19 0 24 -4 19 -16z"/>
<path d="M6557 1283 c-3 -10 -8 -30 -11 -45 -5 -23 -12 -28 -36 -28 -20 0 -30
-5 -30 -15 0 -10 10 -15 26 -15 22 0 25 -3 20 -22 -3 -13 -6 -26 -6 -30 0 -5
-13 -8 -30 -8 -20 0 -30 -5 -30 -15 0 -9 10 -15 26 -15 19 0 24 -4 20 -17 -2
-10 -7 -28 -11 -40 -5 -17 -2 -23 9 -23 9 0 19 15 26 40 9 33 15 40 35 40 22
0 23 -2 14 -32 -12 -43 -12 -48 5 -48 8 0 18 16 23 38 7 30 14 38 36 40 31 4
37 32 7 32 -11 0 -20 6 -20 14 0 30 13 46 36 46 15 0 24 6 24 15 0 8 -9 15
-20 15 -23 0 -23 1 -11 53 8 33 7 38 -7 35 -11 -2 -20 -19 -26 -46 -7 -35 -13
-42 -33 -42 -19 0 -23 4 -19 18 17 59 18 72 3 72 -9 0 -18 -8 -20 -17z m49
-119 c-3 -9 -6 -22 -6 -30 0 -8 -10 -14 -25 -14 -27 0 -28 3 -19 38 5 15 14
22 31 22 19 0 24 -4 19 -16z"/>
<path d="M7707 1283 c-3 -10 -8 -30 -11 -45 -5 -23 -12 -28 -36 -28 -20 0 -30
-5 -30 -15 0 -10 10 -15 26 -15 22 0 25 -3 20 -22 -3 -13 -6 -26 -6 -30 0 -5
-13 -8 -30 -8 -20 0 -30 -5 -30 -15 0 -9 10 -15 26 -15 19 0 24 -4 20 -17 -2
-10 -7 -28 -11 -40 -5 -17 -2 -23 9 -23 9 0 19 15 26 40 9 33 15 40 35 40 22
0 23 -2 14 -32 -12 -43 -12 -48 5 -48 8 0 18 16 23 38 7 30 14 38 36 40 31 4
37 32 7 32 -11 0 -20 6 -20 14 0 30 13 46 36 46 15 0 24 6 24 15 0 8 -9 15
-20 15 -23 0 -23 1 -11 53 8 33 7 38 -7 35 -11 -2 -20 -19 -26 -46 -7 -35 -13
-42 -33 -42 -19 0 -23 4 -19 18 17 59 18 72 3 72 -9 0 -18 -8 -20 -17z m49
-119 c-3 -9 -6 -22 -6 -30 0 -8 -10 -14 -25 -14 -27 0 -28 3 -19 38 5 15 14
22 31 22 19 0 24 -4 19 -16z"/>
<path d="M8167 1283 c-3 -10 -8 -30 -11 -45 -5 -23 -12 -28 -36 -28 -20 0 -30
-5 -30 -15 0 -10 10 -15 26 -15 22 0 25 -3 20 -22 -3 -13 -6 -26 -6 -30 0 -5
-13 -8 -30 -8 -20 0 -30 -5 -30 -15 0 -9 10 -15 26 -15 19 0 24 -4 20 -17 -2
-10 -7 -28 -11 -40 -5 -17 -2 -23 9 -23 9 0 19 15 26 40 9 33 15 40 35 40 22
0 23 -2 14 -32 -12 -43 -12 -48 5 -48 8 0 18 16 23 38 7 30 14 38 36 40 31 4
37 32 7 32 -11 0 -20 6 -20 14 0 30 13 46 36 46 15 0 24 6 24 15 0 8 -9 15
-20 15 -23 0 -23 1 -11 53 8 33 7 38 -7 35 -11 -2 -20 -19 -26 -46 -7 -35 -13
-42 -33 -42 -19 0 -23 4 -19 18 17 59 18 72 3 72 -9 0 -18 -8 -20 -17z m49
-119 c-3 -9 -6 -22 -6 -30 0 -8 -10 -14 -25 -14 -27 0 -28 3 -19 38 5 15 14
22 31 22 19 0 24 -4 19 -16z"/>
<path d="M9317 1283 c-3 -10 -8 -30 -11 -45 -5 -23 -12 -28 -36 -28 -20 0 -30
-5 -30 -15 0 -10 10 -15 26 -15 22 0 25 -3 20 -22 -3 -13 -6 -26 -6 -30 0 -5
-13 -8 -30 -8 -20 0 -30 -5 -30 -15 0 -9 10 -15 26 -15 19 0 24 -4 20 -17 -2
-10 -7 -28 -11 -40 -5 -17 -2 -23 9 -23 9 0 19 15 26 40 9 33 15 40 35 40 22
0 23 -2 14 -32 -12 -43 -12 -48 5 -48 8 0 18 16 23 38 7 30 14 38 36 40 31 4
37 32 7 32 -11 0 -20 6 -20 14 0 30 13 46 36 46 15 0 24 6 24 15 0 8 -9 15
-20 15 -23 0 -23 1 -11 53 8 33 7 38 -7 35 -11 -2 -20 -19 -26 -46 -7 -35 -13
-42 -33 -42 -19 0 -23 4 -19 18 17 59 18 72 3 72 -9 0 -18 -8 -20 -17z m49
-119 c-3 -9 -6 -22 -6 -30 0 -8 -10 -14 -25 -14 -27 0 -28 3 -19 38 5 15 14
22 31 22 19 0 24 -4 19 -16z"/>
<path d="M10927 1283 c-3 -10 -8 -30 -11 -45 -5 -23 -12 -28 -36 -28 -20 0
-30 -5 -30 -15 0 -10 10 -15 26 -15 22 0 25 -3 20 -22 -3 -13 -6 -26 -6 -30 0
-5 -13 -8 -30 -8 -20 0 -30 -5 -30 -15 0 -9 10 -15 26 -15 19 0 24 -4 20 -17
-2 -10 -7 -28 -11 -40 -5 -17 -2 -23 9 -23 9 0 19 15 26 40 9 33 15 40 35 40
22 0 23 -2 14 -32 -12 -43 -12 -48 5 -48 8 0 18 16 23 38 7 30 14 38 36 40 31
4 37 32 7 32 -11 0 -20 6 -20 14 0 30 13 46 36 46 15 0 24 6 24 15 0 8 -9 15
-20 15 -23 0 -23 1 -11 53 8 33 7 38 -7 35 -11 -2 -20 -19 -26 -46 -7 -35 -13
-42 -33 -42 -19 0 -23 4 -19 18 17 59 18 72 3 72 -9 0 -18 -8 -20 -17z m49
-119 c-3 -9 -6 -22 -6 -30 0 -8 -10 -14 -25 -14 -27 0 -28 3 -19 38 5 15 14
22 31 22 19 0 24 -4 19 -16z"/>
<path d="M117 833 c-3 -10 -8 -30 -11 -45 -5 -23 -12 -28 -36 -28 -20 0 -30
-5 -30 -15 0 -10 10 -15 26 -15 22 0 25 -3 20 -22 -3 -13 -6 -26 -6 -30 0 -5
-13 -8 -30 -8 -20 0 -30 -5 -30 -15 0 -9 10 -15 26 -15 19 0 24 -4 20 -17 -2
-10 -7 -28 -11 -40 -5 -17 -2 -23 9 -23 9 0 19 15 26 40 9 33 15 40 35 40 22
0 23 -2 14 -32 -12 -43 -12 -48 5 -48 8 0 18 16 23 38 7 30 14 38 36 40 31 4
37 32 7 32 -11 0 -20 6 -20 14 0 30 13 46 36 46 15 0 24 6 24 15 0 8 -9 15
-20 15 -23 0 -23 1 -11 53 8 33 7 38 -7 35 -11 -2 -20 -19 -26 -46 -7 -35 -13
-42 -33 -42 -19 0 -23 4 -19 18 17 59 18 72 3 72 -9 0 -18 -8 -20 -17z m49
-119 c-3 -9 -6 -22 -6 -30 0 -8 -10 -14 -25 -14 -27 0 -28 3 -19 38 5 15 14
22 31 22 19 0 24 -4 19 -16z"/>
<path d="M1497 833 c-3 -10 -8 -30 -11 -45 -5 -23 -12 -28 -36 -28 -20 0 -30
-5 -30 -15 0 -10 10 -15 26 -15 22 0 25 -3 20 -22 -3 -13 -6 -26 -6 -30 0 -5
-13 -8 -30 -8 -20 0 -30 -5 -30 -15 0 -9 10 -15 26 -15 19 0 24 -4 20 -17 -2
-10 -7 -28 -11 -40 -5 -17 -2 -23 9 -23 9 0 19 15 26 40 9 33 15 40 35 40 22
0 23 -2 14 -32 -12 -43 -12 -48 5 -48 8 0 18 16 23 38 7 30 14 38 36 40 31 4
37 32 7 32 -11 0 -20 6 -20 14 0 30 13 46 36 46 15 0 24 6 24 15 0 8 -9 15
-20 15 -23 0 -23 1 -11 53 8 33 7 38 -7 35 -11 -2 -20 -19 -26 -46 -7 -35 -13
-42 -33 -42 -19 0 -23 4 -19 18 17 59 18 72 3 72 -9 0 -18 -8 -20 -17z m49
-119 c-3 -9 -6 -22 -6 -30 0 -8 -10 -14 -25 -14 -27 0 -28 3 -19 38 5 15 14
22 31 22 19 0 24 -4 19 -16z"/>
<path d="M1957 833 c-3 -10 -8 -30 -11 -45 -5 -23 -12 -28 -36 -28 -20 0 -30
-5 -30 -15 0 -10 10 -15 26 -15 22 0 25 -3 20 -22 -3 -13 -6 -26 -6 -30 0 -5
-13 -8 -30 -8 -20 0 -30 -5 -30 -15 0 -9 10 -15 26 -15 19 0 24 -4 20 -17 -2
-10 -7 -28 -11 -40 -5 -17 -2 -23 9 -23 9 0 19 15 26 40 9 33 15 40 35 40 22
0 23 -2 14 -32 -12 -43 -12 -48 5 -48 8 0 18 16 23 38 7 30 14 38 36 40 31 4
37 32 7 32 -11 0 -20 6 -20 14 0 30 13 46 36 46 15 0 24 6 24 15 0 8 -9 15
-20 15 -23 0 -23 1 -11 53 8 33 7 38 -7 35 -11 -2 -20 -19 -26 -46 -7 -35 -13
-42 -33 -42 -19 0 -23 4 -19 18 17 59 18 72 3 72 -9 0 -18 -8 -20 -17z m49
-119 c-3 -9 -6 -22 -6 -30 0 -8 -10 -14 -25 -14 -27 0 -28 3 -19 38 5 15 14
22 31 22 19 0 24 -4 19 -16z"/>
<path d="M3107 833 c-3 -10 -8 -30 -11 -45 -5 -23 -12 -28 -36 -28 -20 0 -30
-5 -30 -15 0 -10 10 -15 26 -15 22 0 25 -3 20 -22 -3 -13 -6 -26 -6 -30 0 -5
-13 -8 -30 -8 -20 0 -30 -5 -30 -15 0 -9 10 -15 26 -15 19 0 24 -4 20 -17 -2
-10 -7 -28 -11 -40 -5 -17 -2 -23 9 -23 9 0 19 15 26 40 9 33 15 40 35 40 22
0 23 -2 14 -32 -12 -43 -12 -48 5 -48 8 0 18 16 23 38 7 30 14 38 36 40 31 4
37 32 7 32 -11 0 -20 6 -20 14 0 30 13 46 36 46 15 0 24 6 24 15 0 8 -9 15
-20 15 -23 0 -23 1 -11 53 8 33 7 38 -7 35 -11 -2 -20 -19 -26 -46 -7 -35 -13
-42 -33 -42 -19 0 -23 4 -19 18 17 59 18 72 3 72 -9 0 -18 -8 -20 -17z m49
-119 c-3 -9 -6 -22 -6 -30 0 -8 -10 -14 -25 -14 -27 0 -28 3 -19 38 5 15 14
22 31 22 19 0 24 -4 19 -16z"/>
<path d="M4027 833 c-3 -10 -8 -30 -11 -45 -5 -23 -12 -28 -36 -28 -20 0 -30
-5 -30 -15 0 -10 10 -15 26 -15 22 0 25 -3 20 -22 -3 -13 -6 -26 -6 -30 0 -5
-13 -8 -30 -8 -20 0 -30 -5 -30 -15 0 -9 10 -15 26 -15 19 0 24 -4 20 -17 -2
-10 -7 -28 -11 -40 -5 -17 -2 -23 9 -23 9 0 19 15 26 40 9 33 15 40 35 40 22
0 23 -2 14 -32 -12 -43 -12 -48 5 -48 8 0 18 16 23 38 7 30 14 38 36 40 31 4
37 32 7 32 -11 0 -20 6 -20 14 0 30 13 46 36 46 15 0 24 6 24 15 0 8 -9 15
-20 15 -23 0 -23 1 -11 53 8 33 7 38 -7 35 -11 -2 -20 -19 -26 -46 -7 -35 -13
-42 -33 -42 -19 0 -23 4 -19 18 17 59 18 72 3 72 -9 0 -18 -8 -20 -17z m49
-119 c-3 -9 -6 -22 -6 -30 0 -8 -10 -14 -25 -14 -27 0 -28 3 -19 38 5 15 14
22 31 22 19 0 24 -4 19 -16z"/>
<path d="M4947 833 c-3 -10 -8 -30 -11 -45 -5 -23 -12 -28 -36 -28 -20 0 -30
-5 -30 -15 0 -10 10 -15 26 -15 22 0 25 -3 20 -22 -3 -13 -6 -26 -6 -30 0 -5
-13 -8 -30 -8 -20 0 -30 -5 -30 -15 0 -9 10 -15 26 -15 19 0 24 -4 20 -17 -2
-10 -7 -28 -11 -40 -5 -17 -2 -23 9 -23 9 0 19 15 26 40 9 33 15 40 35 40 22
0 23 -2 14 -32 -12 -43 -12 -48 5 -48 8 0 18 16 23 38 7 30 14 38 36 40 31 4
37 32 7 32 -11 0 -20 6 -20 14 0 30 13 46 36 46 15 0 24 6 24 15 0 8 -9 15
-20 15 -23 0 -23 1 -11 53 8 33 7 38 -7 35 -11 -2 -20 -19 -26 -46 -7 -35 -13
-42 -33 -42 -19 0 -23 4 -19 18 17 59 18 72 3 72 -9 0 -18 -8 -20 -17z m49
-119 c-3 -9 -6 -22 -6 -30 0 -8 -10 -14 -25 -14 -27 0 -28 3 -19 38 5 15 14
22 31 22 19 0 24 -4 19 -16z"/>
<path d="M6097 833 c-3 -10 -8 -30 -11 -45 -5 -23 -12 -28 -36 -28 -20 0 -30
-5 -30 -15 0 -10 10 -15 26 -15 22 0 25 -3 20 -22 -3 -13 -6 -26 -6 -30 0 -5
-13 -8 -30 -8 -20 0 -30 -5 -30 -15 0 -9 10 -15 26 -15 19 0 24 -4 20 -17 -2
-10 -7 -28 -11 -40 -5 -17 -2 -23 9 -23 9 0 19 15 26 40 9 33 15 40 35 40 22
0 23 -2 14 -32 -12 -43 -12 -48 5 -48 8 0 18 16 23 38 7 30 14 38 36 40 31 4
37 32 7 32 -11 0 -20 6 -20 14 0 30 13 46 36 46 15 0 24 6 24 15 0 8 -9 15
-20 15 -23 0 -23 1 -11 53 8 33 7 38 -7 35 -11 -2 -20 -19 -26 -46 -7 -35 -13
-42 -33 -42 -19 0 -23 4 -19 18 17 59 18 72 3 72 -9 0 -18 -8 -20 -17z m49
-119 c-3 -9 -6 -22 -6 -30 0 -8 -10 -14 -25 -14 -27 0 -28 3 -19 38 5 15 14
22 31 22 19 0 24 -4 19 -16z"/>
<path d="M6557 833 c-3 -10 -8 -30 -11 -45 -5 -23 -12 -28 -36 -28 -20 0 -30
-5 -30 -15 0 -10 10 -15 26 -15 22 0 25 -3 20 -22 -3 -13 -6 -26 -6 -30 0 -5
-13 -8 -30 -8 -20 0 -30 -5 -30 -15 0 -9 10 -15 26 -15 19 0 24 -4 20 -17 -2
-10 -7 -28 -11 -40 -5 -17 -2 -23 9 -23 9 0 19 15 26 40 9 33 15 40 35 40 22
0 23 -2 14 -32 -12 -43 -12 -48 5 -48 8 0 18 16 23 38 7 30 14 38 36 40 31 4
37 32 7 32 -11 0 -20 6 -20 14 0 30 13 46 36 46 15 0 24 6 24 15 0 8 -9 15
-20 15 -23 0 -23 1 -11 53 8 33 7 38 -7 35 -11 -2 -20 -19 -26 -46 -7 -35 -13
-42 -33 -42 -19 0 -23 4 -19 18 17 59 18 72 3 72 -9 0 -18 -8 -20 -17z m49
-119 c-3 -9 -6 -22 -6 -30 0 -8 -10 -14 -25 -14 -27 0 -28 3 -19 38 5 15 14
22 31 22 19 0 24 -4 19 -16z"/>
<path d="M7707 833 c-3 -10 -8 -30 -11 -45 -5 -23 -12 -28 -36 -28 -20 0 -30
-5 -30 -15 0 -10 10 -15 26 -15 22 0 25 -3 20 -22 -3 -13 -6 -26 -6 -30 0 -5
-13 -8 -30 -8 -20 0 -30 -5 -30 -15 0 -9 10 -15 26 -15 19 0 24 -4 20 -17 -2
-10 -7 -28 -11 -40 -5 -17 -2 -23 9 -23 9 0 19 15 26 40 9 33 15 40 35 40 22
0 23 -2 14 -32 -12 -43 -12 -48 5 -48 8 0 18 16 23 38 7 30 14 38 36 40 31 4
37 32 7 32 -11 0 -20 6 -20 14 0 30 13 46 36 46 15 0 24 6 24 15 0 8 -9 15
-20 15 -23 0 -23 1 -11 53 8 33 7 38 -7 35 -11 -2 -20 -19 -26 -46 -7 -35 -13
-42 -33 -42 -19 0 -23 4 -19 18 17 59 18 72 3 72 -9 0 -18 -8 -20 -17z m49
-119 c-3 -9 -6 -22 -6 -30 0 -8 -10 -14 -25 -14 -27 0 -28 3 -19 38 5 15 14
22 31 22 19 0 24 -4 19 -16z"/>
<path d="M8167 833 c-3 -10 -8 -30 -11 -45 -5 -23 -12 -28 -36 -28 -20 0 -30
-5 -30 -15 0 -10 10 -15 26 -15 22 0 25 -3 20 -22 -3 -13 -6 -26 -6 -30 0 -5
-13 -8 -30 -8 -20 0 -30 -5 -30 -15 0 -9 10 -15 26 -15 19 0 24 -4 20 -17 -2
-10 -7 -28 -11 -40 -5 -17 -2 -23 9 -23 9 0 19 15 26 40 9 33 15 40 35 40 22
0 23 -2 14 -32 -12 -43 -12 -48 5 -48 8 0 18 16 23 38 7 30 14 38 36 40 31 4
37 32 7 32 -11 0 -20 6 -20 14 0 30 13 46 36 46 15 0 24 6 24 15 0 8 -9 15
-20 15 -23 0 -23 1 -11 53 8 33 7 38 -7 35 -11 -2 -20 -19 -26 -46 -7 -35 -13
-42 -33 -42 -19 0 -23 4 -19 18 17 59 18 72 3 72 -9 0 -18 -8 -20 -17z m49
-119 c-3 -9 -6 -22 -6 -30 0 -8 -10 -14 -25 -14 -27 0 -28 3 -19 38 5 15 14
22 31 22 19 0 24 -4 19 -16z"/>
<path d="M9317 833 c-3 -10 -8 -30 -11 -45 -5 -23 -12 -28 -36 -28 -20 0 -30
-5 -30 -15 0 -10 10 -15 26 -15 22 0 25 -3 20 -22 -3 -13 -6 -26 -6 -30 0 -5
-13 -8 -30 -8 -20 0 -30 -5 -30 -15 0 -9 10 -15 26 -15 19 0 24 -4 20 -17 -2
-10 -7 -28 -11 -40 -5 -17 -2 -23 9 -23 9 0 19 15 26 40 9 33 15 40 35 40 22
0 23 -2 14 -32 -12 -43 -12 -48 5 -48 8 0 18 16 23 38 7 30 14 38 36 40 31 4
37 32 7 32 -11 0 -20 6 -20 14 0 30 13 46 36 46 15 0 24 6 24 15 0 8 -9 15
-20 15 -23 0 -23 1 -11 53 8 33 7 38 -7 35 -11 -2 -20 -19 -26 -46 -7 -35 -13
-42 -33 -42 -19 0 -23 4 -19 18 17 59 18 72 3 72 -9 0 -18 -8 -20 -17z m49
-119 c-3 -9 -6 -22 -6 -30 0 -8 -10 -14 -25 -14 -27 0 -28 3 -19 38 5 15 14
22 31 22 19 0 24 -4 19 -16z"/>
<path d="M9777 833 c-3 -10 -8 -30 -11 -45 -5 -23 -12 -28 -36 -28 -20 0 -30
-5 -30 -15 0 -10 10 -15 26 -15 22 0 25 -3 20 -22 -3 -13 -6 -26 -6 -30 0 -5
-13 -8 -30 -8 -20 0 -30 -5 -30 -15 0 -9 10 -15 26 -15 19 0 24 -4 20 -17 -2
-10 -7 -28 -11 -40 -5 -17 -2 -23 9 -23 9 0 19 15 26 40 9 33 15 40 35 40 22
0 23 -2 14 -32 -12 -43 -12 -48 5 -48 8 0 18 16 23 38 7 30 14 38 36 40 31 4
37 32 7 32 -11 0 -20 6 -20 14 0 30 13 46 36 46 15 0 24 6 24 15 0 8 -9 15
-20 15 -23 0 -23 1 -11 53 8 33 7 38 -7 35 -11 -2 -20 -19 -26 -46 -7 -35 -13
-42 -33 -42 -19 0 -23 4 -19 18 17 59 18 72 3 72 -9 0 -18 -8 -20 -17z m49
-119 c-3 -9 -6 -22 -6 -30 0 -8 -10 -14 -25 -14 -27 0 -28 3 -19 38 5 15 14
22 31 22 19 0 24 -4 19 -16z"/>
<path d="M10927 833 c-3 -10 -8 -30 -11 -45 -5 -23 -12 -28 -36 -28 -20 0 -30
-5 -30 -15 0 -10 10 -15 26 -15 22 0 25 -3 20 -22 -3 -13 -6 -26 -6 -30 0 -5
-13 -8 -30 -8 -20 0 -30 -5 -30 -15 0 -9 10 -15 26 -15 19 0 24 -4 20 -17 -2
-10 -7 -28 -11 -40 -5 -17 -2 -23 9 -23 9 0 19 15 26 40 9 33 15 40 35 40 22
0 23 -2 14 -32 -12 -43 -12 -48 5 -48 8 0 18 16 23 38 7 30 14 38 36 40 31 4
37 32 7 32 -11 0 -20 6 -20 14 0 30 13 46 36 46 15 0 24 6 24 15 0 8 -9 15
-20 15 -23 0 -23 1 -11 53 8 33 7 38 -7 35 -11 -2 -20 -19 -26 -46 -7 -35 -13
-42 -33 -42 -19 0 -23 4 -19 18 17 59 18 72 3 72 -9 0 -18 -8 -20 -17z m49
-119 c-3 -9 -6 -22 -6 -30 0 -8 -10 -14 -25 -14 -27 0 -28 3 -19 38 5 15 14
22 31 22 19 0 24 -4 19 -16z"/>
<path d="M117 383 c-3 -10 -8 -30 -11 -45 -5 -23 -12 -28 -36 -28 -20 0 -30
-5 -30 -15 0 -10 10 -15 26 -15 22 0 25 -3 20 -22 -3 -13 -6 -26 -6 -30 0 -5
-13 -8 -30 -8 -20 0 -30 -5 -30 -15 0 -9 10 -15 26 -15 19 0 24 -4 20 -17 -2
-10 -7 -28 -11 -40 -5 -17 -2 -23 9 -23 9 0 19 15 26 40 9 33 15 40 35 40 22
0 23 -2 14 -32 -12 -43 -12 -48 5 -48 8 0 18 16 23 37 7 31 14 39 36 41 31 4
37 32 7 32 -11 0 -20 6 -20 14 0 30 13 46 36 46 15 0 24 6 24 15 0 8 -9 15
-20 15 -23 0 -23 1 -11 53 8 33 7 38 -7 35 -11 -2 -20 -19 -26 -46 -7 -35 -13
-42 -33 -42 -19 0 -23 4 -19 18 17 59 18 72 3 72 -9 0 -18 -8 -20 -17z m49
-119 c-3 -9 -6 -22 -6 -30 0 -8 -10 -14 -25 -14 -27 0 -28 3 -19 38 5 15 14
22 31 22 19 0 24 -4 19 -16z"/>
<path d="M347 383 c-3 -10 -8 -30 -11 -45 -5 -23 -12 -28 -36 -28 -20 0 -30
-5 -30 -15 0 -10 10 -15 26 -15 22 0 25 -3 20 -22 -3 -13 -6 -26 -6 -30 0 -5
-13 -8 -30 -8 -20 0 -30 -5 -30 -15 0 -9 10 -15 26 -15 19 0 24 -4 20 -17 -2
-10 -7 -28 -11 -40 -5 -17 -2 -23 9 -23 9 0 19 15 26 40 9 33 15 40 35 40 22
0 23 -2 14 -32 -12 -43 -12 -48 5 -48 8 0 18 16 23 37 7 31 14 39 36 41 31 4
37 32 7 32 -11 0 -20 6 -20 14 0 30 13 46 36 46 15 0 24 6 24 15 0 8 -9 15
-20 15 -23 0 -23 1 -11 53 8 33 7 38 -7 35 -11 -2 -20 -19 -26 -46 -7 -35 -13
-42 -33 -42 -19 0 -23 4 -19 18 17 59 18 72 3 72 -9 0 -18 -8 -20 -17z m49
-119 c-3 -9 -6 -22 -6 -30 0 -8 -10 -14 -25 -14 -27 0 -28 3 -19 38 5 15 14
22 31 22 19 0 24 -4 19 -16z"/>
<path d="M577 383 c-3 -10 -8 -30 -11 -45 -5 -23 -12 -28 -36 -28 -20 0 -30
-5 -30 -15 0 -10 10 -15 26 -15 22 0 25 -3 20 -22 -3 -13 -6 -26 -6 -30 0 -5
-13 -8 -30 -8 -20 0 -30 -5 -30 -15 0 -9 10 -15 26 -15 19 0 24 -4 20 -17 -2
-10 -7 -28 -11 -40 -5 -17 -2 -23 9 -23 9 0 19 15 26 40 9 33 15 40 35 40 22
0 23 -2 14 -32 -12 -43 -12 -48 5 -48 8 0 18 16 23 37 7 31 14 39 36 41 31 4
37 32 7 32 -11 0 -20 6 -20 14 0 30 13 46 36 46 15 0 24 6 24 15 0 8 -9 15
-20 15 -23 0 -23 1 -11 53 8 33 7 38 -7 35 -11 -2 -20 -19 -26 -46 -7 -35 -13
-42 -33 -42 -19 0 -23 4 -19 18 17 59 18 72 3 72 -9 0 -18 -8 -20 -17z m49
-119 c-3 -9 -6 -22 -6 -30 0 -8 -10 -14 -25 -14 -27 0 -28 3 -19 38 5 15 14
22 31 22 19 0 24 -4 19 -16z"/>
<path d="M807 383 c-3 -10 -8 -30 -11 -45 -5 -23 -12 -28 -36 -28 -20 0 -30
-5 -30 -15 0 -10 10 -15 26 -15 22 0 25 -3 20 -22 -3 -13 -6 -26 -6 -30 0 -5
-13 -8 -30 -8 -20 0 -30 -5 -30 -15 0 -9 10 -15 26 -15 19 0 24 -4 20 -17 -2
-10 -7 -28 -11 -40 -5 -17 -2 -23 9 -23 9 0 19 15 26 40 9 33 15 40 35 40 22
0 23 -2 14 -32 -12 -43 -12 -48 5 -48 8 0 18 16 23 37 7 31 14 39 36 41 31 4
37 32 7 32 -11 0 -20 6 -20 14 0 30 13 46 36 46 15 0 24 6 24 15 0 8 -9 15
-20 15 -23 0 -23 1 -11 53 8 33 7 38 -7 35 -11 -2 -20 -19 -26 -46 -7 -35 -13
-42 -33 -42 -19 0 -23 4 -19 18 17 59 18 72 3 72 -9 0 -18 -8 -20 -17z m49
-119 c-3 -9 -6 -22 -6 -30 0 -8 -10 -14 -25 -14 -27 0 -28 3 -19 38 5 15 14
22 31 22 19 0 24 -4 19 -16z"/>
<path d="M1037 383 c-3 -10 -8 -30 -11 -45 -5 -23 -12 -28 -36 -28 -20 0 -30
-5 -30 -15 0 -10 10 -15 26 -15 22 0 25 -3 20 -22 -3 -13 -6 -26 -6 -30 0 -5
-13 -8 -30 -8 -20 0 -30 -5 -30 -15 0 -9 10 -15 26 -15 19 0 24 -4 20 -17 -2
-10 -7 -28 -11 -40 -5 -17 -2 -23 9 -23 9 0 19 15 26 40 9 33 15 40 35 40 22
0 23 -2 14 -32 -12 -43 -12 -48 5 -48 8 0 18 16 23 37 7 31 14 39 36 41 31 4
37 32 7 32 -11 0 -20 6 -20 14 0 30 13 46 36 46 15 0 24 6 24 15 0 8 -9 15
-20 15 -23 0 -23 1 -11 53 8 33 7 38 -7 35 -11 -2 -20 -19 -26 -46 -7 -35 -13
-42 -33 -42 -19 0 -23 4 -19 18 17 59 18 72 3 72 -9 0 -18 -8 -20 -17z m49
-119 c-3 -9 -6 -22 -6 -30 0 -8 -10 -14 -25 -14 -27 0 -28 3 -19 38 5 15 14
22 31 22 19 0 24 -4 19 -16z"/>
<path d="M1267 383 c-3 -10 -8 -30 -11 -45 -5 -23 -12 -28 -36 -28 -20 0 -30
-5 -30 -15 0 -10 10 -15 26 -15 22 0 25 -3 20 -22 -3 -13 -6 -26 -6 -30 0 -5
-13 -8 -30 -8 -20 0 -30 -5 -30 -15 0 -9 10 -15 26 -15 19 0 24 -4 20 -17 -2
-10 -7 -28 -11 -40 -5 -17 -2 -23 9 -23 9 0 19 15 26 40 9 33 15 40 35 40 22
0 23 -2 14 -32 -12 -43 -12 -48 5 -48 8 0 18 16 23 37 7 31 14 39 36 41 31 4
37 32 7 32 -11 0 -20 6 -20 14 0 30 13 46 36 46 15 0 24 6 24 15 0 8 -9 15
-20 15 -23 0 -23 1 -11 53 8 33 7 38 -7 35 -11 -2 -20 -19 -26 -46 -7 -35 -13
-42 -33 -42 -19 0 -23 4 -19 18 17 59 18 72 3 72 -9 0 -18 -8 -20 -17z m49
-119 c-3 -9 -6 -22 -6 -30 0 -8 -10 -14 -25 -14 -27 0 -28 3 -19 38 5 15 14
22 31 22 19 0 24 -4 19 -16z"/>
<path d="M1957 383 c-3 -10 -8 -30 -11 -45 -5 -23 -12 -28 -36 -28 -20 0 -30
-5 -30 -15 0 -10 10 -15 26 -15 22 0 25 -3 20 -22 -3 -13 -6 -26 -6 -30 0 -5
-13 -8 -30 -8 -20 0 -30 -5 -30 -15 0 -9 10 -15 26 -15 19 0 24 -4 20 -17 -2
-10 -7 -28 -11 -40 -5 -17 -2 -23 9 -23 9 0 19 15 26 40 9 33 15 40 35 40 22
0 23 -2 14 -32 -12 -43 -12 -48 5 -48 8 0 18 16 23 37 7 31 14 39 36 41 31 4
37 32 7 32 -11 0 -20 6 -20 14 0 30 13 46 36 46 15 0 24 6 24 15 0 8 -9 15
-20 15 -23 0 -23 1 -11 53 8 33 7 38 -7 35 -11 -2 -20 -19 -26 -46 -7 -35 -13
-42 -33 -42 -19 0 -23 4 -19 18 17 59 18 72 3 72 -9 0 -18 -8 -20 -17z m49
-119 c-3 -9 -6 -22 -6 -30 0 -8 -10 -14 -25 -14 -27 0 -28 3 -19 38 5 15 14
22 31 22 19 0 24 -4 19 -16z"/>
<path d="M3107 383 c-3 -10 -8 -30 -11 -45 -5 -23 -12 -28 -36 -28 -20 0 -30
-5 -30 -15 0 -10 10 -15 26 -15 22 0 25 -3 20 -22 -3 -13 -6 -26 -6 -30 0 -5
-13 -8 -30 -8 -20 0 -30 -5 -30 -15 0 -9 10 -15 26 -15 19 0 24 -4 20 -17 -2
-10 -7 -28 -11 -40 -5 -17 -2 -23 9 -23 9 0 19 15 26 40 9 33 15 40 35 40 22
0 23 -2 14 -32 -12 -43 -12 -48 5 -48 8 0 18 16 23 37 7 31 14 39 36 41 31 4
37 32 7 32 -11 0 -20 6 -20 14 0 30 13 46 36 46 15 0 24 6 24 15 0 8 -9 15
-20 15 -23 0 -23 1 -11 53 8 33 7 38 -7 35 -11 -2 -20 -19 -26 -46 -7 -35 -13
-42 -33 -42 -19 0 -23 4 -19 18 17 59 18 72 3 72 -9 0 -18 -8 -20 -17z m49
-119 c-3 -9 -6 -22 -6 -30 0 -8 -10 -14 -25 -14 -27 0 -28 3 -19 38 5 15 14
22 31 22 19 0 24 -4 19 -16z"/>
<path d="M4027 383 c-3 -10 -8 -30 -11 -45 -5 -23 -12 -28 -36 -28 -20 0 -30
-5 -30 -15 0 -10 10 -15 26 -15 22 0 25 -3 20 -22 -3 -13 -6 -26 -6 -30 0 -5
-13 -8 -30 -8 -20 0 -30 -5 -30 -15 0 -9 10 -15 26 -15 19 0 24 -4 20 -17 -2
-10 -7 -28 -11 -40 -5 -17 -2 -23 9 -23 9 0 19 15 26 40 9 33 15 40 35 40 22
0 23 -2 14 -32 -12 -43 -12 -48 5 -48 8 0 18 16 23 37 7 31 14 39 36 41 31 4
37 32 7 32 -11 0 -20 6 -20 14 0 30 13 46 36 46 15 0 24 6 24 15 0 8 -9 15
-20 15 -23 0 -23 1 -11 53 8 33 7 38 -7 35 -11 -2 -20 -19 -26 -46 -7 -35 -13
-42 -33 -42 -19 0 -23 4 -19 18 17 59 18 72 3 72 -9 0 -18 -8 -20 -17z m49
-119 c-3 -9 -6 -22 -6 -30 0 -8 -10 -14 -25 -14 -27 0 -28 3 -19 38 5 15 14
22 31 22 19 0 24 -4 19 -16z"/>
<path d="M4947 383 c-3 -10 -8 -30 -11 -45 -5 -23 -12 -28 -36 -28 -20 0 -30
-5 -30 -15 0 -10 10 -15 26 -15 22 0 25 -3 20 -22 -3 -13 -6 -26 -6 -30 0 -5
-13 -8 -30 -8 -20 0 -30 -5 -30 -15 0 -9 10 -15 26 -15 19 0 24 -4 20 -17 -2
-10 -7 -28 -11 -40 -5 -17 -2 -23 9 -23 9 0 19 15 26 40 9 33 15 40 35 40 22
0 23 -2 14 -32 -12 -43 -12 -48 5 -48 8 0 18 16 23 37 7 31 14 39 36 41 31 4
37 32 7 32 -11 0 -20 6 -20 14 0 30 13 46 36 46 15 0 24 6 24 15 0 8 -9 15
-20 15 -23 0 -23 1 -11 53 8 33 7 38 -7 35 -11 -2 -20 -19 -26 -46 -7 -35 -13
-42 -33 -42 -19 0 -23 4 -19 18 17 59 18 72 3 72 -9 0 -18 -8 -20 -17z m49
-119 c-3 -9 -6 -22 -6 -30 0 -8 -10 -14 -25 -14 -27 0 -28 3 -19 38 5 15 14
22 31 22 19 0 24 -4 19 -16z"/>
<path d="M6097 383 c-3 -10 -8 -30 -11 -45 -5 -23 -12 -28 -36 -28 -20 0 -30
-5 -30 -15 0 -10 10 -15 26 -15 22 0 25 -3 20 -22 -3 -13 -6 -26 -6 -30 0 -5
-13 -8 -30 -8 -20 0 -30 -5 -30 -15 0 -9 10 -15 26 -15 19 0 24 -4 20 -17 -2
-10 -7 -28 -11 -40 -5 -17 -2 -23 9 -23 9 0 19 15 26 40 9 33 15 40 35 40 22
0 23 -2 14 -32 -12 -43 -12 -48 5 -48 8 0 18 16 23 37 7 31 14 39 36 41 31 4
37 32 7 32 -11 0 -20 6 -20 14 0 30 13 46 36 46 15 0 24 6 24 15 0 8 -9 15
-20 15 -23 0 -23 1 -11 53 8 33 7 38 -7 35 -11 -2 -20 -19 -26 -46 -7 -35 -13
-42 -33 -42 -19 0 -23 4 -19 18 17 59 18 72 3 72 -9 0 -18 -8 -20 -17z m49
-119 c-3 -9 -6 -22 -6 -30 0 -8 -10 -14 -25 -14 -27 0 -28 3 -19 38 5 15 14
22 31 22 19 0 24 -4 19 -16z"/>
<path d="M6557 383 c-3 -10 -8 -30 -11 -45 -5 -23 -12 -28 -36 -28 -20 0 -30
-5 -30 -15 0 -10 10 -15 26 -15 22 0 25 -3 20 -22 -3 -13 -6 -26 -6 -30 0 -5
-13 -8 -30 -8 -20 0 -30 -5 -30 -15 0 -9 10 -15 26 -15 19 0 24 -4 20 -17 -2
-10 -7 -28 -11 -40 -5 -17 -2 -23 9 -23 9 0 19 15 26 40 9 33 15 40 35 40 22
0 23 -2 14 -32 -12 -43 -12 -48 5 -48 8 0 18 16 23 37 7 31 14 39 36 41 31 4
37 32 7 32 -11 0 -20 6 -20 14 0 30 13 46 36 46 15 0 24 6 24 15 0 8 -9 15
-20 15 -23 0 -23 1 -11 53 8 33 7 38 -7 35 -11 -2 -20 -19 -26 -46 -7 -35 -13
-42 -33 -42 -19 0 -23 4 -19 18 17 59 18 72 3 72 -9 0 -18 -8 -20 -17z m49
-119 c-3 -9 -6 -22 -6 -30 0 -8 -10 -14 -25 -14 -27 0 -28 3 -19 38 5 15 14
22 31 22 19 0 24 -4 19 -16z"/>
<path d="M6787 383 c-3 -10 -8 -30 -11 -45 -5 -23 -12 -28 -36 -28 -20 0 -30
-5 -30 -15 0 -10 10 -15 26 -15 22 0 25 -3 20 -22 -3 -13 -6 -26 -6 -30 0 -5
-13 -8 -30 -8 -20 0 -30 -5 -30 -15 0 -9 10 -15 26 -15 19 0 24 -4 20 -17 -2
-10 -7 -28 -11 -40 -5 -17 -2 -23 9 -23 9 0 19 15 26 40 9 33 15 40 35 40 22
0 23 -2 14 -32 -12 -43 -12 -48 5 -48 8 0 18 16 23 37 7 31 14 39 36 41 31 4
37 32 7 32 -11 0 -20 6 -20 14 0 30 13 46 36 46 15 0 24 6 24 15 0 8 -9 15
-20 15 -23 0 -23 1 -11 53 8 33 7 38 -7 35 -11 -2 -20 -19 -26 -46 -7 -35 -13
-42 -33 -42 -19 0 -23 4 -19 18 17 59 18 72 3 72 -9 0 -18 -8 -20 -17z m49
-119 c-3 -9 -6 -22 -6 -30 0 -8 -10 -14 -25 -14 -27 0 -28 3 -19 38 5 15 14
22 31 22 19 0 24 -4 19 -16z"/>
<path d="M7017 383 c-3 -10 -8 -30 -11 -45 -5 -23 -12 -28 -36 -28 -20 0 -30
-5 -30 -15 0 -10 10 -15 26 -15 22 0 25 -3 20 -22 -3 -13 -6 -26 -6 -30 0 -5
-13 -8 -30 -8 -20 0 -30 -5 -30 -15 0 -9 10 -15 26 -15 19 0 24 -4 20 -17 -2
-10 -7 -28 -11 -40 -5 -17 -2 -23 9 -23 9 0 19 15 26 40 9 33 15 40 35 40 22
0 23 -2 14 -32 -12 -43 -12 -48 5 -48 8 0 18 16 23 37 7 31 14 39 36 41 31 4
37 32 7 32 -11 0 -20 6 -20 14 0 30 13 46 36 46 15 0 24 6 24 15 0 8 -9 15
-20 15 -23 0 -23 1 -11 53 8 33 7 38 -7 35 -11 -2 -20 -19 -26 -46 -7 -35 -13
-42 -33 -42 -19 0 -23 4 -19 18 17 59 18 72 3 72 -9 0 -18 -8 -20 -17z m49
-119 c-3 -9 -6 -22 -6 -30 0 -8 -10 -14 -25 -14 -27 0 -28 3 -19 38 5 15 14
22 31 22 19 0 24 -4 19 -16z"/>
<path d="M7247 383 c-3 -10 -8 -30 -11 -45 -5 -23 -12 -28 -36 -28 -20 0 -30
-5 -30 -15 0 -10 10 -15 26 -15 22 0 25 -3 20 -22 -3 -13 -6 -26 -6 -30 0 -5
-13 -8 -30 -8 -20 0 -30 -5 -30 -15 0 -9 10 -15 26 -15 19 0 24 -4 20 -17 -2
-10 -7 -28 -11 -40 -5 -17 -2 -23 9 -23 9 0 19 15 26 40 9 33 15 40 35 40 22
0 23 -2 14 -32 -12 -43 -12 -48 5 -48 8 0 18 16 23 37 7 31 14 39 36 41 31 4
37 32 7 32 -11 0 -20 6 -20 14 0 30 13 46 36 46 15 0 24 6 24 15 0 8 -9 15
-20 15 -23 0 -23 1 -11 53 8 33 7 38 -7 35 -11 -2 -20 -19 -26 -46 -7 -35 -13
-42 -33 -42 -19 0 -23 4 -19 18 17 59 18 72 3 72 -9 0 -18 -8 -20 -17z m49
-119 c-3 -9 -6 -22 -6 -30 0 -8 -10 -14 -25 -14 -27 0 -28 3 -19 38 5 15 14
22 31 22 19 0 24 -4 19 -16z"/>
<path d="M7477 383 c-3 -10 -8 -30 -11 -45 -5 -23 -12 -28 -36 -28 -20 0 -30
-5 -30 -15 0 -10 10 -15 26 -15 22 0 25 -3 20 -22 -3 -13 -6 -26 -6 -30 0 -5
-13 -8 -30 -8 -20 0 -30 -5 -30 -15 0 -9 10 -15 26 -15 19 0 24 -4 20 -17 -2
-10 -7 -28 -11 -40 -5 -17 -2 -23 9 -23 9 0 19 15 26 40 9 33 15 40 35 40 22
0 23 -2 14 -32 -12 -43 -12 -48 5 -48 8 0 18 16 23 37 7 31 14 39 36 41 31 4
37 32 7 32 -11 0 -20 6 -20 14 0 30 13 46 36 46 15 0 24 6 24 15 0 8 -9 15
-20 15 -23 0 -23 1 -11 53 8 33 7 38 -7 35 -11 -2 -20 -19 -26 -46 -7 -35 -13
-42 -33 -42 -19 0 -23 4 -19 18 17 59 18 72 3 72 -9 0 -18 -8 -20 -17z m49
-119 c-3 -9 -6 -22 -6 -30 0 -8 -10 -14 -25 -14 -27 0 -28 3 -19 38 5 15 14
22 31 22 19 0 24 -4 19 -16z"/>
<path d="M8397 383 c-3 -10 -8 -30 -11 -45 -5 -23 -12 -28 -36 -28 -20 0 -30
-5 -30 -15 0 -10 10 -15 26 -15 22 0 25 -3 20 -22 -3 -13 -6 -26 -6 -30 0 -5
-13 -8 -30 -8 -20 0 -30 -5 -30 -15 0 -9 10 -15 26 -15 19 0 24 -4 20 -17 -2
-10 -7 -28 -11 -40 -5 -17 -2 -23 9 -23 9 0 19 15 26 40 9 33 15 40 35 40 22
0 23 -2 14 -32 -12 -43 -12 -48 5 -48 8 0 18 16 23 37 7 31 14 39 36 41 31 4
37 32 7 32 -11 0 -20 6 -20 14 0 30 13 46 36 46 15 0 24 6 24 15 0 8 -9 15
-20 15 -23 0 -23 1 -11 53 8 33 7 38 -7 35 -11 -2 -20 -19 -26 -46 -7 -35 -13
-42 -33 -42 -19 0 -23 4 -19 18 17 59 18 72 3 72 -9 0 -18 -8 -20 -17z m49
-119 c-3 -9 -6 -22 -6 -30 0 -8 -10 -14 -25 -14 -27 0 -28 3 -19 38 5 15 14
22 31 22 19 0 24 -4 19 -16z"/>
<path d="M8627 383 c-3 -10 -8 -30 -11 -45 -5 -23 -12 -28 -36 -28 -20 0 -30
-5 -30 -15 0 -10 10 -15 26 -15 22 0 25 -3 20 -22 -3 -13 -6 -26 -6 -30 0 -5
-13 -8 -30 -8 -20 0 -30 -5 -30 -15 0 -9 10 -15 26 -15 19 0 24 -4 20 -17 -2
-10 -7 -28 -11 -40 -5 -17 -2 -23 9 -23 9 0 19 15 26 40 9 33 15 40 35 40 22
0 23 -2 14 -32 -12 -43 -12 -48 5 -48 8 0 18 16 23 37 7 31 14 39 36 41 31 4
37 32 7 32 -11 0 -20 6 -20 14 0 30 13 46 36 46 15 0 24 6 24 15 0 8 -9 15
-20 15 -23 0 -23 1 -11 53 8 33 7 38 -7 35 -11 -2 -20 -19 -26 -46 -7 -35 -13
-42 -33 -42 -19 0 -23 4 -19 18 17 59 18 72 3 72 -9 0 -18 -8 -20 -17z m49
-119 c-3 -9 -6 -22 -6 -30 0 -8 -10 -14 -25 -14 -27 0 -28 3 -19 38 5 15 14
22 31 22 19 0 24 -4 19 -16z"/>
<path d="M8857 383 c-3 -10 -8 -30 -11 -45 -5 -23 -12 -28 -36 -28 -20 0 -30
-5 -30 -15 0 -10 10 -15 26 -15 22 0 25 -3 20 -22 -3 -13 -6 -26 -6 -30 0 -5
-13 -8 -30 -8 -20 0 -30 -5 -30 -15 0 -9 10 -15 26 -15 19 0 24 -4 20 -17 -2
-10 -7 -28 -11 -40 -5 -17 -2 -23 9 -23 9 0 19 15 26 40 9 33 15 40 35 40 22
0 23 -2 14 -32 -12 -43 -12 -48 5 -48 8 0 18 16 23 37 7 31 14 39 36 41 31 4
37 32 7 32 -11 0 -20 6 -20 14 0 30 13 46 36 46 15 0 24 6 24 15 0 8 -9 15
-20 15 -23 0 -23 1 -11 53 8 33 7 38 -7 35 -11 -2 -20 -19 -26 -46 -7 -35 -13
-42 -33 -42 -19 0 -23 4 -19 18 17 59 18 72 3 72 -9 0 -18 -8 -20 -17z m49
-119 c-3 -9 -6 -22 -6 -30 0 -8 -10 -14 -25 -14 -27 0 -28 3 -19 38 5 15 14
22 31 22 19 0 24 -4 19 -16z"/>
<path d="M9087 383 c-3 -10 -8 -30 -11 -45 -5 -23 -12 -28 -36 -28 -20 0 -30
-5 -30 -15 0 -10 10 -15 26 -15 22 0 25 -3 20 -22 -3 -13 -6 -26 -6 -30 0 -5
-13 -8 -30 -8 -20 0 -30 -5 -30 -15 0 -9 10 -15 26 -15 19 0 24 -4 20 -17 -2
-10 -7 -28 -11 -40 -5 -17 -2 -23 9 -23 9 0 19 15 26 40 9 33 15 40 35 40 22
0 23 -2 14 -32 -12 -43 -12 -48 5 -48 8 0 18 16 23 37 7 31 14 39 36 41 31 4
37 32 7 32 -11 0 -20 6 -20 14 0 30 13 46 36 46 15 0 24 6 24 15 0 8 -9 15
-20 15 -23 0 -23 1 -11 53 8 33 7 38 -7 35 -11 -2 -20 -19 -26 -46 -7 -35 -13
-42 -33 -42 -19 0 -23 4 -19 18 17 59 18 72 3 72 -9 0 -18 -8 -20 -17z m49
-119 c-3 -9 -6 -22 -6 -30 0 -8 -10 -14 -25 -14 -27 0 -28 3 -19 38 5 15 14
22 31 22 19 0 24 -4 19 -16z"/>
<path d="M10007 383 c-3 -10 -8 -30 -11 -45 -5 -23 -12 -28 -36 -28 -20 0 -30
-5 -30 -15 0 -10 10 -15 26 -15 22 0 25 -3 20 -22 -3 -13 -6 -26 -6 -30 0 -5
-13 -8 -30 -8 -20 0 -30 -5 -30 -15 0 -9 10 -15 26 -15 19 0 24 -4 20 -17 -2
-10 -7 -28 -11 -40 -5 -17 -2 -23 9 -23 9 0 19 15 26 40 9 33 15 40 35 40 22
0 23 -2 14 -32 -12 -43 -12 -48 5 -48 8 0 18 16 23 37 7 31 14 39 36 41 31 4
37 32 7 32 -11 0 -20 6 -20 14 0 30 13 46 36 46 15 0 24 6 24 15 0 8 -9 15
-20 15 -23 0 -23 1 -11 53 8 33 7 38 -7 35 -11 -2 -20 -19 -26 -46 -7 -35 -13
-42 -33 -42 -19 0 -23 4 -19 18 17 59 18 72 3 72 -9 0 -18 -8 -20 -17z m49
-119 c-3 -9 -6 -22 -6 -30 0 -8 -10 -14 -25 -14 -27 0 -28 3 -19 38 5 15 14
22 31 22 19 0 24 -4 19 -16z"/>
<path d="M10237 383 c-3 -10 -8 -30 -11 -45 -5 -23 -12 -28 -36 -28 -20 0 -30
-5 -30 -15 0 -10 10 -15 26 -15 22 0 25 -3 20 -22 -3 -13 -6 -26 -6 -30 0 -5
-13 -8 -30 -8 -20 0 -30 -5 -30 -15 0 -9 10 -15 26 -15 19 0 24 -4 20 -17 -2
-10 -7 -28 -11 -40 -5 -17 -2 -23 9 -23 9 0 19 15 26 40 9 33 15 40 35 40 22
0 23 -2 14 -32 -12 -43 -12 -48 5 -48 8 0 18 16 23 37 7 31 14 39 36 41 31 4
37 32 7 32 -11 0 -20 6 -20 14 0 30 13 46 36 46 15 0 24 6 24 15 0 8 -9 15
-20 15 -23 0 -23 1 -11 53 8 33 7 38 -7 35 -11 -2 -20 -19 -26 -46 -7 -35 -13
-42 -33 -42 -19 0 -23 4 -19 18 17 59 18 72 3 72 -9 0 -18 -8 -20 -17z m49
-119 c-3 -9 -6 -22 -6 -30 0 -8 -10 -14 -25 -14 -27 0 -28 3 -19 38 5 15 14
22 31 22 19 0 24 -4 19 -16z"/>
<path d="M10467 383 c-3 -10 -8 -30 -11 -45 -5 -23 -12 -28 -36 -28 -20 0 -30
-5 -30 -15 0 -10 10 -15 26 -15 22 0 25 -3 20 -22 -3 -13 -6 -26 -6 -30 0 -5
-13 -8 -30 -8 -20 0 -30 -5 -30 -15 0 -9 10 -15 26 -15 19 0 24 -4 20 -17 -2
-10 -7 -28 -11 -40 -5 -17 -2 -23 9 -23 9 0 19 15 26 40 9 33 15 40 35 40 22
0 23 -2 14 -32 -12 -43 -12 -48 5 -48 8 0 18 16 23 37 7 31 14 39 36 41 31 4
37 32 7 32 -11 0 -20 6 -20 14 0 30 13 46 36 46 15 0 24 6 24 15 0 8 -9 15
-20 15 -23 0 -23 1 -11 53 8 33 7 38 -7 35 -11 -2 -20 -19 -26 -46 -7 -35 -13
-42 -33 -42 -19 0 -23 4 -19 18 17 59 18 72 3 72 -9 0 -18 -8 -20 -17z m49
-119 c-3 -9 -6 -22 -6 -30 0 -8 -10 -14 -25 -14 -27 0 -28 3 -19 38 5 15 14
22 31 22 19 0 24 -4 19 -16z"/>
<path d="M10697 383 c-3 -10 -8 -30 -11 -45 -5 -23 -12 -28 -36 -28 -20 0 -30
-5 -30 -15 0 -10 10 -15 26 -15 22 0 25 -3 20 -22 -3 -13 -6 -26 -6 -30 0 -5
-13 -8 -30 -8 -20 0 -30 -5 -30 -15 0 -9 10 -15 26 -15 19 0 24 -4 20 -17 -2
-10 -7 -28 -11 -40 -5 -17 -2 -23 9 -23 9 0 19 15 26 40 9 33 15 40 35 40 22
0 23 -2 14 -32 -12 -43 -12 -48 5 -48 8 0 18 16 23 37 7 31 14 39 36 41 31 4
37 32 7 32 -11 0 -20 6 -20 14 0 30 13 46 36 46 15 0 24 6 24 15 0 8 -9 15
-20 15 -23 0 -23 1 -11 53 8 33 7 38 -7 35 -11 -2 -20 -19 -26 -46 -7 -35 -13
-42 -33 -42 -19 0 -23 4 -19 18 17 59 18 72 3 72 -9 0 -18 -8 -20 -17z m49
-119 c-3 -9 -6 -22 -6 -30 0 -8 -10 -14 -25 -14 -27 0 -28 3 -19 38 5 15 14
22 31 22 19 0 24 -4 19 -16z"/>
</g>
</svg>
